<svg xmlns="http://www.w3.org/2000/svg" width="217" height="237" viewBox="0 0 217 237">
    <defs>
        <linearGradient id="a" x1="34.437%" x2="74.499%" y1="71.099%" y2="19.911%">
            <stop offset="20%" stop-color="#FFF"/>
            <stop offset="30%" stop-color="#E6E6E6"/>
            <stop offset="52%" stop-color="#A5A5A5"/>
            <stop offset="82%" stop-color="#3E3E3E"/>
            <stop offset="100%"/>
        </linearGradient>
        <linearGradient id="b" x1="59.617%" x2="20.402%" y1="112.792%" y2="8.828%">
            <stop offset="10%" stop-color="#FFF"/>
            <stop offset="21%" stop-color="#FBFBFB"/>
            <stop offset="30%" stop-color="#F1F1F1"/>
            <stop offset="38%" stop-color="#DEDEDE"/>
            <stop offset="47%" stop-color="#C5C5C5"/>
            <stop offset="55%" stop-color="#A4A4A4"/>
            <stop offset="63%" stop-color="#7B7B7B"/>
            <stop offset="71%" stop-color="#4B4B4B"/>
            <stop offset="79%" stop-color="#141414"/>
            <stop offset="81%"/>
        </linearGradient>
        <linearGradient id="c" x1="10.566%" x2="64.933%" y1="70.481%" y2="27.155%">
            <stop offset="20%" stop-color="#FFF"/>
            <stop offset="30%" stop-color="#E6E6E6"/>
            <stop offset="52%" stop-color="#A5A5A5"/>
            <stop offset="82%" stop-color="#3E3E3E"/>
            <stop offset="100%"/>
        </linearGradient>
        <linearGradient id="d" x1="27.566%" x2="83.473%" y1="82.544%" y2="7.605%">
            <stop offset="6%" stop-color="#FFF"/>
            <stop offset="39%" stop-color="#A1A1A1"/>
            <stop offset="81%" stop-color="#2E2E2E"/>
            <stop offset="100%"/>
        </linearGradient>
        <linearGradient id="e" x1="3085.85%" x2="3136.514%" y1="116.93%" y2="66.928%">
            <stop offset="0%" stop-color="#F5F5F5"/>
            <stop offset="21%" stop-color="#FBFBFB"/>
            <stop offset="30%" stop-color="#F1F1F1"/>
            <stop offset="38%" stop-color="#DEDEDE"/>
            <stop offset="47%" stop-color="#C5C5C5"/>
            <stop offset="55%" stop-color="#A4A4A4"/>
            <stop offset="63%" stop-color="#7B7B7B"/>
            <stop offset="71%" stop-color="#4B4B4B"/>
            <stop offset="79%" stop-color="#141414"/>
            <stop offset="100%"/>
        </linearGradient>
        <linearGradient id="f" x1="39.783%" x2="106.849%" y1="52.039%" y2="29.559%">
            <stop offset="20%" stop-color="#FFF"/>
            <stop offset="30%" stop-color="#E6E6E6"/>
            <stop offset="52%" stop-color="#A5A5A5"/>
            <stop offset="82%" stop-color="#3E3E3E"/>
            <stop offset="100%"/>
        </linearGradient>
    </defs>
    <g fill="none" fill-rule="evenodd">
        <path fill="#FFF" fill-rule="nonzero" d="M217 174.706a6.852 6.852 0 0 1-3.092 5.348l-97.327 56.206a6.783 6.783 0 0 1-6.162 0l-97.327-56.206A6.852 6.852 0 0 1 10 174.706V62.294a6.873 6.873 0 0 1 3.092-5.348L110.419.74a6.783 6.783 0 0 1 6.162 0l97.327 56.206A6.873 6.873 0 0 1 217 62.294v112.412z" opacity=".938" style="mix-blend-mode:screen"/>
        <path fill="#F0F0F0" fill-rule="nonzero" d="M214 173.289a6.695 6.695 0 0 1-3.007 5.215l-94.975 54.789a6.792 6.792 0 0 1-6.036 0l-94.954-54.79A6.673 6.673 0 0 1 12 173.29V63.71a6.673 6.673 0 0 1 3.028-5.215l94.954-54.789a6.792 6.792 0 0 1 6.036 0l94.975 54.79A6.695 6.695 0 0 1 214 63.71V173.29z"/>
        <path fill="url(#a)" fill-rule="nonzero" d="M206 125.512L149.732 160 94 77.426 158.199 40z" opacity=".499" style="mix-blend-mode:multiply"/>
        <path fill="#282828" fill-rule="nonzero" d="M205.176 105.07v-.411c-1.824-12.196-4.93-13.994-23.321-22.659l-24.06.498c-18.413 6.217-23.125 10.377-24.754 24.197L131 125h76l-1.824-19.93z"/>
        <path fill="#BDDBE0" fill-rule="nonzero" d="M158.72 77L157 83.41 169 93l-.367-14.932z"/>
        <path fill="#FFF" fill-rule="nonzero" d="M177.282 77L179 83.395 167 93l.39-14.93z"/>
        <path fill="#FFF" fill-rule="nonzero" d="M160 83.559c3.383 2.668 5.447 5.08 8.809 4.74 3.705-.8 6.93-3.072 8.936-6.299A45.578 45.578 0 0 0 182 85.373l-5.915 9.224-8.51 24.403-7.83-24.916L154 85.736l6-2.177z"/>
        <path fill="#FFF" fill-rule="nonzero" d="M158.267 80L154 84.888 155.8 95l9.2-9.53zM179.276 79L184 84.822 182.178 95 173 85.025z"/>
        <g fill-rule="nonzero">
            <path fill="#FF8666" d="M171.935 95.257h-2.588V88.88h5.13l.045 2.733z"/>
            <path fill="#FF8666" d="M172.25 94.282l4.523 40.252-7.133 5.275-.157-.148-.27-45.336z"/>
            <path fill="#DF542F" d="M167.368 95.257h2.16V88.88h-5.243l.022 2.733z"/>
            <path fill="#DF542F" d="M167.007 94.282l-4.522 40.252 7.155 5.275-.112-45.527z"/>
            <path fill="#006E99" d="M172.363 95.193h-5.423v-.466h5.355z"/>
        </g>
        <path fill="url(#b)" fill-rule="nonzero" d="M178 78.397L155.09 101 153 85.013l4.526-4.845 2.09-6.168z" opacity=".4" style="mix-blend-mode:multiply"/>
        <path fill="#FFF" fill-rule="nonzero" d="M158.34 77.21c.408.552.849 1.08 1.32 1.58a22.363 22.363 0 0 1-1.32-1.58z"/>
        <path fill="#E0E0E0" fill-rule="nonzero" d="M186 61.712c0-2.183-.577-2.926-1.581-3.253.235-4.366.833-8.732-.684-11.854C180.83 40.645 172.84 37 167.37 37c-6.125.084-11.776 3.383-14.956 8.732-1.794 3.405-.897 7.902-.662 12.509-1.111.283-1.752 1.113-1.752 3.296 0 3.274 1.431 8.448 3.675 9.169.299.807.62 1.571.961 2.314v.13a28.133 28.133 0 0 0 2.585 4.366 27.59 27.59 0 0 0 1.41 1.703c2.322 2.892 5.743 4.632 9.401 4.781 5.277 0 10.02-4.082 13.225-10.544.243-.452.521-.883.833-1.288.192-.48.385-.96.534-1.44 2.2-1.332 3.376-5.982 3.376-9.016z"/>
        <path fill="#FFF" fill-rule="nonzero" d="M181.537 73.475c.236-.453.509-.885.813-1.29.188-.482.375-.964.521-1.445 1.94-1.27 3.129-5.93 3.129-8.971 0-2.188-.563-2.91-1.543-3.26.229-4.376.813-8.753-.668-11.882C180.994 40.72 173.36 37.087 168 37v47h.626c5.152.043 9.782-4.048 12.91-10.525z"/>
        <path fill="#2A2A2A" fill-rule="nonzero" d="M178.192 45.07c.349 2.615-4.77 2.51-8.169 1.966a17.628 17.628 0 0 0-8.713.983c-2.976.93-5.434 2.973-6.819 5.666-.14 1.852-.14 3.71 0 5.562l-2.875-1.275a33.115 33.115 0 0 1-.283-11.04c.98-4.182 3.485-7.486 11.545-9.158 7.32-1.527 12.439-.607 12.678 1.129.567.125 1.024-.314 1.7-.314 2.685.47 5.05 1.984 6.535 4.182 1.46 2.3 2.897 6.503 1.851 13.59a5.303 5.303 0 0 1-.61 2.343L182.658 60s1.045-8.928-2.81-11.542c-1.242-.836-1.656-3.387-1.656-3.387z"/>
        <path fill="#4D4D4D" fill-rule="nonzero" d="M179.94 46.129C183.752 48.817 182.702 58 182.702 58l2.334-1.333a5.61 5.61 0 0 0 .621-2.409c1.007-7.29-.385-11.613-1.841-13.957A9.7 9.7 0 0 0 177.499 36c-.509.06-1.01.168-1.499.323.707 2.387 2.355 5.785 2.355 6.344 0-.022.386 2.602 1.585 3.462z"/>
        <path fill="#185F93" fill-rule="nonzero" d="M177.988 45.71v.58a1.8 1.8 0 0 0 0-.58z"/>
        <path fill="#4D4D4D" fill-rule="nonzero" d="M192.759 60.19a15.19 15.19 0 0 0-1.096-2.644c.177-1.244.269-2.5.274-3.757C191.937 40.65 181.66 30 168.983 30c-12.677 0-22.954 10.65-22.954 23.789a23.797 23.797 0 0 0 .316 3.888 14.29 14.29 0 0 0-1.096 2.578 26.782 26.782 0 0 0 .464 9.786c1.764 1.956 4.138 3.202 6.703 3.517.265.31.656.472 1.054.437.325-.043.62-.22.819-.491.198-.272.283-.614.235-.95l-1.16-13.107c-.077-.705-.69-1.213-1.37-1.136a1.29 1.29 0 0 0-.78.393h-.337a3.244 3.244 0 0 1-2.108-1.682 20.744 20.744 0 0 1-.253-3.255c0-11.883 9.17-20.075 20.467-20.075 11.298 0 20.466 8.192 20.466 20.075a23.96 23.96 0 0 1-.231 3.277 3.212 3.212 0 0 1-2.108 1.573h-.359a1.144 1.144 0 0 0-.78-.394c-.68-.076-1.292.431-1.37 1.136l-1.138 13.107c-.029.34.076.678.29.937.214.259.52.417.849.44.39.027.772-.134 1.032-.438 2.544-.326 4.895-1.572 6.64-3.517.761-3.17.926-6.463.485-9.699z"/>
        <path fill="#2B2B2B" fill-rule="nonzero" d="M192 64.5c-1.368-1.125-1.81 0-1.81 0-3.37 5.138-8.413 8.809-14.183 10.324a4.361 4.361 0 0 0-3.282-1.236c-2.105 0-3.725 1.037-3.725 2.206 0 1.17 1.662 2.206 3.725 2.206 2.062 0 3.703-1.015 3.724-2.206 3.24-.882 11.237-3.993 15.551-11.294z"/>
        <path fill="url(#c)" fill-rule="nonzero" d="M72 112.77L13 138l.173-66.309L27.939 63z" opacity=".5" style="mix-blend-mode:multiply"/>
        <path fill="url(#d)" fill-rule="nonzero" d="M118.68 51l14.206 6.189 8.047 9.984 2.145 24.26L164 170.402 85.42 220l-71.347-39.355L13 108.943l84.03-50.676z" opacity=".5" style="mix-blend-mode:multiply"/>
        <path fill="#4D4D4D" fill-rule="nonzero" d="M137.898 71L155 135l-30.66-5.912-.34-32.591z"/>
        <path fill="#272727" fill-rule="nonzero" d="M92.495 75L79 134.2l31 18.8-1.995-70.11z"/>
        <path fill="#CCC" fill-rule="nonzero" d="M105.502 109c-.233 4.01-2.74 12.242-6.502 15 4.016 7.001 13.026 14.49 17 15-.234-15.255 0-30 0-30h-10.498z"/>
        <path fill="#FFF" fill-rule="nonzero" d="M126.498 109c.233 4.01 2.74 12.242 6.502 15-4.016 7.001-13.026 14.49-17 15 .234-15.255 0-30 0-30h10.498z"/>
        <path fill="#FF8666" fill-rule="nonzero" d="M161.832 148.2v-.526c-2.275-15.432-6.247-15.957-28.872-28.674l-17.173 11.448-12.622-10.791C80.776 129.725 74.551 132.79 72.533 150.3L70 170h94l-2.168-21.8z"/>
        <path fill="#FFF" fill-rule="nonzero" d="M128.912 117l7.088 5.235L128.994 136 119 124.54z"/>
        <path fill="#DF542F" fill-rule="nonzero" d="M103.284 119c-22.601 10.056-28.17 12.417-30.164 29.883L70 170h47v-40.114l-.91.59L103.284 119z"/>
        <path fill="#FFF" fill-rule="nonzero" d="M105.717 119.985c4.348 3.366 6.979 6.473 11.283 5.977 4.744-1 8.873-3.875 11.435-7.962a57.16 57.16 0 0 0 5.565 4.315l-8.087 10.228L116.5 147 106 130.925l-8-8.2 7.717-2.74z"/>
        <path fill="#FFF" fill-rule="nonzero" d="M103.478 117L98 122.386 103.856 137 115 124.94z"/>
        <path fill="url(#e)" fill-rule="nonzero" d="M128 110.246L104.771 137 98 122.303l6.429-6.25 2.078-7.053z" opacity=".4" style="mix-blend-mode:multiply"/>
        <path fill="#E0E0E0" fill-rule="nonzero" d="M97.902 68.784c-2.213 4.296-1.086 9.774-.815 15.445-1.356.387-2.087 1.396-2.087 4.103 0 4.038 1.753 10.418 4.509 11.32.355.989.751 1.934 1.169 2.858a.95.95 0 0 0 0 .15 36.215 36.215 0 0 0 3.173 5.37c.564.752 1.127 1.461 1.712 2.149 2.648 3.216 6.372 5.293 10.437 5.821V58c-7.423.19-14.242 4.254-18.098 10.784z"/>
        <path fill="#FFF" fill-rule="nonzero" d="M116 58v58c4.062-.524 7.784-2.602 10.427-5.821a34.546 34.546 0 0 0 1.71-2.149 34.58 34.58 0 0 0 3.17-5.37.951.951 0 0 0 0-.15c.435-.932.825-1.885 1.168-2.857C135.227 98.75 137 92.37 137 88.332c0-2.707-.813-3.716-2.085-4.103.27-5.671 1.397-11.213-.814-15.445C130.245 62.247 123.423 58.184 116 58z"/>
        <path fill="#303030" fill-rule="nonzero" d="M115.91 57.418c-4.449-1.524-14.144 1.202-18.488 6.848C91 72.616 91 87 91 87l8.142-1.138s2.393-10.283 11.29-13.825c6.716-2.683 5.478-14.62 5.478-14.62z"/>
        <path fill="#4D4D4D" fill-rule="nonzero" d="M107.811 65.45c1.547 7.668 16.586 7.017 21.795 9.558 5.209 2.541 5.035 9.992 5.035 9.992L139 83.718s4.359-12.62-5.122-21.026a27.727 27.727 0 0 0-24.52-5.93c-4.162 1.02-1.547 8.688-1.547 8.688z"/>
        <path fill="#232323" fill-rule="nonzero" d="M142 89.595c-1.667-1.338-2.137 0-2.137 0-4.115 6.13-10.26 10.518-17.292 12.348a5.41 5.41 0 0 0-4.018-1.47c-2.522 0-4.553 1.228-4.553 2.764 0 1.535 2.137 2.763 4.553 2.763 2.415 0 4.552-1.228 4.574-2.742 3.804-1.206 13.594-4.934 18.873-13.663z"/>
        <path fill="#FFF" fill-rule="nonzero" d="M144.69 85.685a15.45 15.45 0 0 0-1.377-3.108c.242-1.474.364-2.965.366-4.458 0-10.046-5.377-19.329-14.105-24.352a28.288 28.288 0 0 0-28.21 0C92.638 58.79 87.26 68.073 87.26 78.12c.009 1.537.138 3.07.387 4.587-.552.971-1 1.998-1.333 3.064-.56 3.858-.37 7.787.56 11.574a13.668 13.668 0 0 0 8.17 4.158 1.55 1.55 0 0 0 2.32-.05c.263-.315.388-.722.346-1.13l-1.42-15.495a1.525 1.525 0 0 0-1.676-1.35c-.37.031-.716.2-.968.472h-.43a3.976 3.976 0 0 1-2.623-1.972 25.467 25.467 0 0 1-.301-3.858c0-14.038 11.266-23.704 25.156-23.704 13.89 0 25.264 9.666 25.264 23.704.001 1.3-.107 2.597-.323 3.88a3.848 3.848 0 0 1-2.558 1.864h-.409a1.593 1.593 0 0 0-.967-.472 1.525 1.525 0 0 0-1.678 1.35l-1.505 15.582a1.528 1.528 0 0 0 1.398 1.65c.487.038.964-.152 1.29-.514a13.668 13.668 0 0 0 8.149-4.158 30.275 30.275 0 0 0 .58-11.616z"/>
        <path fill="#292929" fill-rule="nonzero" d="M108 182h-4.762l-3.919 6.025H3.052c-1.645 0-2.77.197-2.49.459L0 198.657a7.732 7.732 0 0 0 2.77.327h90.336a8.032 8.032 0 0 0 2.815-.327l12.014-10.173L108 182z"/>
        <path fill="#BDDBE0" fill-rule="nonzero" d="M95.928 192.657a8.03 8.03 0 0 1-2.814.327H2.77A7.73 7.73 0 0 1 0 192.657l.563-10.177c-.282-.262.844-.48 2.49-.48h102.466c1.645 0 2.749.218 2.424.48l-12.015 10.177z"/>
        <rect width="94" height="68" y="131" fill="#4D4D4D" fill-rule="nonzero" rx="1.13"/>
        <path fill="#FFF" fill-rule="nonzero" d="M27 63.215v35.1l8.743 6.352L40.365 113H72V63z"/>
        <path fill="#CCC" fill-rule="nonzero" d="M27 97.525L40 113l-.598-16zM36 73h14v1H36zM36 77h14v1H36zM36 81h14v1H36zM36 84h14v1H36zM36 88h29v1H36zM36 93h29v1H36z"/>
        <path fill="url(#f)" fill-rule="nonzero" d="M59 82.003L22.432 97 21 86.333 56.592 73z" opacity=".5" style="mix-blend-mode:multiply"/>
        <path fill="#4D4D4D" d="M57 80.14s1.112 2.929 1.5 2.859C58.888 82.929 60 80 60 80l-3 .14z"/>
        <path fill="#E0E0E0" d="M62 73.611v-.59L54.067 73l-.067.57L56.793 80h2.257z"/>
        <path fill="#DF542F" d="M62 16.957h-8V13.89C54 12.826 55.827 12 57.967 12c2.139 0 3.877.804 3.988 1.87V17l.045-.043z"/>
        <path fill="#DF542F" fill-rule="nonzero" d="M54 21h8v53h-8z"/>
        <path fill="#FF8666" fill-rule="nonzero" d="M57 21h3v53h-3z"/>
        <path fill="#F74C0F" d="M54 17v-3.234c0-.757.84-1.399 2-1.766v4.977L54 17z"/>
        <path fill="#FFF" fill-rule="nonzero" d="M54 15h8v11h-8z"/>
        <path fill="#D1E6E8" fill-rule="nonzero" d="M55 15h2v11h-2z"/>
    </g>
</svg>
