<svg xmlns="http://www.w3.org/2000/svg" width="40" height="40" viewBox="0 0 40 40">
    <g fill="none" fill-rule="nonzero">
        <path fill="#DF542F" d="M14.137 31.673H2.57v-8.82h11.567z"/>
        <path fill="#4D4D4D" d="M39.99 34.193l-5.14-2.52H20.562v-2.52H37.27V11.699h-1.285v16.194h-2.57v-6.93c0-1.042-.865-1.89-1.928-1.89H27.63c-1.063 0-1.928.848-1.928 1.89v6.93h-5.14v-12.6h-3.856V11.7h-1.285v3.594H4.849L2.57 17.847v-6.333h10.936v-1.26H2.421l3.084-5.04h15.333v-1.26H4.777L.15 11.514h1.135v7.772L0 20.726v18.506h20.562v-2.52H34.85l5.14-2.52zm-13.002-13.23c0-.347.288-.63.643-.63h3.855c.354 0 .643.283.643.63v6.93h-5.141v-6.93zm-4.498 11.97h11.566v2.52H22.49v-2.52zm-1.285 2.52h-2.57c-.71 0-1.286-.566-1.286-1.26 0-.695.577-1.26 1.286-1.26h2.57v2.52zm14.136-.39v-1.741l1.777.87-1.777.871zM4.498 17.6v2.733h-2.44l2.44-2.733zm14.78 20.372H1.284V21.593h4.498v-5.04h13.494v15.12h-.642c-1.418 0-2.57 1.13-2.57 2.52 0 1.39 1.152 2.52 2.57 2.52h.642v1.26z"/>
        <path fill="#FFF" d="M2.57 35.452h12.21v1.26H2.57zM2.57 32.933h12.21v1.26H2.57z"/>
        <path fill="#4D4D4D" d="M13.988 21.367L13 20.56l-5.975 7.03-1.43-1.403-.909.891 2.425 2.378zM7.068 17.813h10.924v1.26H7.068z"/>
        <path fill="#FFF" d="M28.273 22.853h1.285v1.26h-1.285z"/>
        <path fill="#4D4D4D" d="M31.486 10.884H21.205v3.78h10.28v-3.78zm-1.285 2.52H22.49v-1.26h7.71v1.26z"/>
        <path fill="#DF542F" d="M37.734 12.774a2.12 2.12 0 0 1-1.215-.379l-10.174-7.04-10.173 7.04a2.124 2.124 0 0 1-1.215.379c-1.16 0-2.106-.926-2.106-2.065v-.338c0-.674.336-1.306.899-1.692L26.345.035 38.941 8.68c.562.385.898 1.018.898 1.692v.338c0 1.139-.944 2.065-2.105 2.065z"/>
    </g>
</svg>
