<svg xmlns="http://www.w3.org/2000/svg" width="40" height="40" viewBox="0 0 40 40">
    <g fill="none" fill-rule="nonzero">
        <path fill="#DF542F" d="M11.945.01c-3.12 0-5.658 2.589-5.658 5.772v2.565h.629c0-1.063.844-1.924 1.886-1.924 1.23 0 2.432-.372 3.455-1.067l.317-.216.369.376c.569.58 1.34.907 2.146.907 1.042 0 1.886.86 1.886 1.924h.629V5.782c0-3.183-2.538-5.772-5.659-5.772z"/>
        <path fill="#4D4D4D" d="M38.134 29.878l-1.937-4.217h.897V24.38h-6.377c-.099-.39-.286-.743-.539-1.038v-3.075l-1.886-1.924-1.886 1.924v3.075c-.253.295-.44.647-.54 1.038h-3.232v-2.565c.693 0 1.257-.576 1.257-1.283v-1.283c0-.707-.564-1.282-1.257-1.282H19.49v-.788c0-1.33-.82-2.535-2.04-3.002l-2.99-1.144v-.543c.476-.435.843-.99 1.053-1.621a2.55 2.55 0 0 0 2.09-2.521c0-1.415-1.127-2.565-2.514-2.565a2.402 2.402 0 0 1-1.702-.72l-.733-.747-.746.507a5.508 5.508 0 0 1-3.106.96c-1.387 0-2.515 1.15-2.515 2.565a2.55 2.55 0 0 0 2.09 2.521 3.86 3.86 0 0 0 1.054 1.621v.543l-2.99 1.144c-1.22.467-2.04 1.673-2.04 3.002v.788H1.257C.564 17.966 0 18.54 0 19.248v1.283c0 .707.564 1.283 1.257 1.283v14.108h21.377v-3.207h-1.258v1.924H6.287v-8.978h10.06V24.38H5.03v10.26H2.515V21.814h18.861v2.565H19.49v1.282h.897l-1.937 4.217 1.138.545 1.788-3.892 1.789 3.892 1.138-.545-1.938-4.217h3.501c.1.39.287.743.54 1.038v9.223c-1.04 0-1.886.863-1.886 1.924v1.924h7.544v-1.924c0-1.061-.846-1.924-1.886-1.924v-9.223c.253-.295.44-.647.54-1.038h3.5l-1.937 4.217 1.138.545 1.789-3.892 1.788 3.892 1.138-.545zM16.346 8.347c0 .472-.254.881-.628 1.104V7.243c.374.222.628.63.628 1.104zm-3.853-2.383l.005.005a3.667 3.667 0 0 0 1.962 1.035V9.63c0 1.415-1.128 2.565-2.515 2.565-1.387 0-2.514-1.15-2.514-2.565V7.02a6.727 6.727 0 0 0 3.062-1.055zM7.545 8.347c0-.473.254-.882.628-1.105V9.45a1.28 1.28 0 0 1-.628-1.103zm4.4 5.13c.442 0 .864-.082 1.258-.225v.225c0 .707-.564 1.283-1.258 1.283-.693 0-1.257-.576-1.257-1.283v-.225c.394.143.816.225 1.257.225zm-6.287 3.701c0-.797.492-1.52 1.224-1.801l2.706-1.035c.35.988 1.27 1.7 2.357 1.7 1.088 0 2.008-.712 2.358-1.7l2.706 1.035a1.932 1.932 0 0 1 1.224 1.801v.788H5.658v-.788zm-4.4 2.07h21.376v1.283H1.258v-1.283zm27.034 7.055c-.694 0-1.258-.576-1.258-1.283s.564-1.283 1.258-1.283c.693 0 1.257.576 1.257 1.283s-.564 1.283-1.257 1.283zm0-6.148l.629.642v1.749a2.43 2.43 0 0 0-.63-.091 2.43 2.43 0 0 0-.628.091v-1.75l.629-.64zm2.515 17.69v.642h-5.03v-.641c0-.354.282-.642.629-.642h3.772c.347 0 .629.288.629.642zm-3.144-1.923v-8.428c.202.054.41.091.629.091.218 0 .426-.037.629-.09v8.427h-1.258z"/>
        <path fill="#4D4D4D" d="M7.545 26.944h8.801v1.282H7.545zM7.545 29.509h8.801v1.283H7.545zM7.545 32.074h8.801v1.283H7.545z"/>
        <g fill="#DF542F">
            <path d="M38.213 33.357h-6.011l-.943-3.848h7.897zM24.382 33.357H18.37l-.943-3.848h7.898z"/>
        </g>
    </g>
</svg>
