<svg xmlns="http://www.w3.org/2000/svg" width="40" height="40" viewBox="0 0 40 40">
    <g fill="none" fill-rule="nonzero">
        <path fill="#DF542F" d="M14.822 22.83h3.863c.712 0 1.288.564 1.288 1.262 0 .697-.576 1.262-1.288 1.262h-3.22a.638.638 0 0 0-.643.632v1.345c.973 1.86 2.93 3.073 5.151 3.073 1.072 0 2.119-.289 3.029-.836l.072-.044a1.25 1.25 0 0 1-.526-1.013c0-.682.552-1.233 1.241-1.259l.003-.008c-.69-.024-1.244-.576-1.244-1.258 0-.698.577-1.263 1.288-1.263a1.275 1.275 0 0 1-1.288-1.262c0-.698.577-1.263 1.288-1.263h1.261l.025-.093-.131-.223a5.802 5.802 0 0 0-2.443-2.246v-5.013l-1.287-1.262 1.287-1.263v-1.893L21.261 7.68h-2.576l-1.287 2.525v9.43a5.766 5.766 0 0 0-2.798 2.957l-.023.261c.082-.007.161-.024.245-.024z"/>
        <path fill="#4D4D4D" d="M13.534 12.73h2.576v-1.263h-3.863v8.837h1.287zM26.412 20.304h1.287v-8.837h-3.863v1.263h2.576z"/>
        <path fill="#4D4D4D" d="M36.07 14.477h-1.288v17.821h-7.83c.066-.305.103-.618.103-.937v-1.073c.748-.261 1.288-.956 1.288-1.777 0-.487-.193-.927-.502-1.263.31-.336.502-.776.502-1.262 0-.487-.193-.927-.502-1.263.31-.336.502-.776.502-1.262 0-1.044-.867-1.894-1.931-1.894h-2.576c-1.065 0-1.931.85-1.931 1.894 0 .486.193.926.502 1.262a1.859 1.859 0 0 0-.502 1.263c0 .486.193.926.502 1.262a1.859 1.859 0 0 0-.502 1.263c0 1.043.866 1.893 1.931 1.893h1.932v.957c0 .843-.336 1.636-.943 2.231l-.989.97v3.417h-8.37v-3.378l-1.87-2.292a3.125 3.125 0 0 1-.706-1.97v-4.985c0-1.044.867-1.893 1.932-1.893h3.863c.355 0 .644.282.644.63a.638.638 0 0 1-.644.632h-3.22c-.71 0-1.287.566-1.287 1.263v3.787h1.288v-3.787h3.22c1.064 0 1.93-.85 1.93-1.894s-.866-1.894-1.93-1.894h-3.864c-1.775 0-3.22 1.416-3.22 3.156v4.985c0 .683.176 1.352.483 1.959h-6.92v-17.82H3.875V33.56h9.091l1.211 1.485v4.197h10.946v-4.158l.611-.599c.285-.279.523-.591.718-.925h9.617V14.477zM23.192 25.986c0-.349.289-.632.644-.632h2.576c.355 0 .643.283.643.632a.638.638 0 0 1-.643.63h-2.576a.638.638 0 0 1-.644-.63zm.644-3.157h2.576c.355 0 .643.283.643.632a.638.638 0 0 1-.643.63h-2.576a.638.638 0 0 1-.644-.63c0-.349.289-.632.644-.632zm-.644 5.682c0-.35.289-.632.644-.632h2.576c.355 0 .643.283.643.632a.638.638 0 0 1-.643.63h-2.576a.638.638 0 0 1-.644-.63z"/>
        <path fill="#DF542F" d="M37.282 15.886c-.491 0-.972-.133-1.39-.386L19.974 5.894 4.054 15.5a2.69 2.69 0 0 1-1.39.386c-1.461 0-2.65-1.166-2.65-2.6v-.073c0-.908.492-1.762 1.286-2.229L19.973 0l18.673 10.983a2.603 2.603 0 0 1 1.287 2.23v.074c0 1.433-1.19 2.599-2.651 2.599z"/>
    </g>
</svg>
