<svg xmlns="http://www.w3.org/2000/svg" width="40" height="40" viewBox="0 0 40 40">
    <g fill="none" fill-rule="nonzero">
        <g fill="#DF542F">
            <path d="M21.29 9.677h8.387v5.807H21.29zM16.774 34.839c-4.269 0-7.742-3.473-7.742-7.742 0-4.27 3.473-7.742 7.742-7.742 4.27 0 7.742 3.473 7.742 7.742s-3.473 7.742-7.742 7.742zM8.387 9.032h5.161v5.162h-5.16z"/>
        </g>
        <path fill="#4D4D4D" d="M36.774 23.871h-4.516V6.83L25.428 0H0v40h32.258v-9.677h4.516A3.23 3.23 0 0 0 40 27.097a3.23 3.23 0 0 0-3.226-3.226zM25.806 2.203l4.25 4.249h-4.25v-4.25zm5.162 36.507H1.29V1.29h23.226v6.452h6.452V23.87h-1.29v-1.29h-1.29v1.29h-1.814c-1.36-4.115-5.235-7.097-9.8-7.097-5.691 0-10.322 4.631-10.322 10.323 0 5.691 4.63 10.322 10.322 10.322 4.565 0 8.44-2.981 9.8-7.096h1.813v1.29h1.29v-1.29h1.29v8.387zm-4.06-13.549h1.48v3.871h-1.48c.12-.628.189-1.273.189-1.935 0-.662-.069-1.308-.189-1.936zm-1.102 1.936c0 4.98-4.051 9.032-9.032 9.032-4.98 0-9.032-4.051-9.032-9.032s4.051-9.032 9.032-9.032 9.032 4.051 9.032 9.032zm10.968 1.935h-7.097v-3.87h7.097c1.067 0 1.936.868 1.936 1.935a1.938 1.938 0 0 1-1.936 1.935z"/>
        <path fill="#4D4D4D" d="M16.129 26.452h1.29v1.29h-1.29zM18.71 26.452H20v1.29h-1.29zM13.548 26.452h1.29v1.29h-1.29zM4.516 14.194v1.29H17.42v-1.29h-1.29V6.319l2.956 1.364.54-1.172-8.657-3.996L2.31 6.51l.54 1.172 2.956-1.364v7.875h-1.29zm2.58-8.47l3.872-1.787 3.87 1.786v8.47H7.098v-8.47zM21.29 9.032h8.387v1.29H21.29zM21.29 11.613h8.387v1.29H21.29zM21.29 14.194h5.807v1.29H21.29zM28.387 14.194h1.29v1.29h-1.29z"/>
    </g>
</svg>
