<svg xmlns="http://www.w3.org/2000/svg" width="40" height="40" viewBox="0 0 40 40">
    <g fill="none" fill-rule="nonzero">
        <path fill="#DF542F" d="M19.998 0l-5.795 2.897V7.16h11.59V2.897z"/>
        <path fill="#4D4D4D" d="M19.998 18.104c-.71 0-1.288-.577-1.288-1.287h-1.288c0 1.196.824 2.196 1.932 2.483v1.38h1.288V19.3a2.574 2.574 0 0 0 1.931-2.483 2.578 2.578 0 0 0-2.575-2.576 1.289 1.289 0 0 1 0-2.575c.71 0 1.288.577 1.288 1.287h1.287a2.574 2.574 0 0 0-1.931-2.484V9.09h-1.288v1.38a2.573 2.573 0 0 0-1.932 2.483 2.578 2.578 0 0 0 2.576 2.576 1.289 1.289 0 0 1 0 2.575zM30.612 29.142l-2.822 1.693c-.027-.027-.049-.06-.077-.086l-5.441-4.897c-.826-.743-2.116-.867-3.069-.296l-2.397 1.438a.87.87 0 0 1-1.315-.745v-.128c0-.33.184-.629.48-.777l3.592-1.795a2.81 2.81 0 0 1 2.007-.187l4.046 1.156 1.464.025v-1.288h-1.197l-3.96-1.131a4.034 4.034 0 0 0-.956-.137l-2.912-.932a7.948 7.948 0 0 0-4.126-.187l-4.722 1.048.28 1.257 4.721-1.049a6.656 6.656 0 0 1 3.455.158l.947.303-3.215 1.607a2.145 2.145 0 0 0-1.192 1.93v.128a2.158 2.158 0 0 0 3.266 1.848l2.397-1.438a1.332 1.332 0 0 1 1.544.149l5.441 4.896a.693.693 0 0 1-.464 1.208h-.11a.692.692 0 0 1-.444-.16l-.102-.085-3.39-2.825-.824.99 3.39 2.824a.673.673 0 0 1-.43 1.188h-.14a.672.672 0 0 1-.43-.156l-.107-.09-3.39-2.824-.824.989 3.39 2.824a.672.672 0 0 1-.43 1.188c-.248 0-.488-.087-.678-.245l-1.436-1.197a2.003 2.003 0 0 0-1.73-1.126 2.004 2.004 0 0 0-1.93-1.932 2.004 2.004 0 0 0-1.932-1.931 2.008 2.008 0 0 0-2.003-1.939c-.537 0-1.042.21-1.42.589l-1.132 1.131c-.069.069-.125.145-.182.22l-2.008-1.204-.662 1.104 2.269 1.361a2.005 2.005 0 0 0 1.932 1.943 2.004 2.004 0 0 0 1.932 1.931 2.004 2.004 0 0 0 1.932 1.932 2.008 2.008 0 0 0 2.002 1.939 2 2 0 0 0 1.13-.349l.569.502c.358.316.818.49 1.296.49h.119a1.96 1.96 0 0 0 1.957-1.934 1.958 1.958 0 0 0 1.931-1.931 1.958 1.958 0 0 0 1.932-1.934 1.981 1.981 0 0 0 1.934-1.976c0-.073-.015-.144-.023-.217l2.93-1.757-.663-1.104zm-19.628 2.405c0-.193.075-.374.211-.51l1.132-1.132a.723.723 0 0 1 1.021 1.021l-1.132 1.132a.723.723 0 0 1-1.232-.51zm1.931 1.932c0-.193.075-.374.212-.51l1.131-1.133a.723.723 0 0 1 1.021 1.021l-1.131 1.133a.723.723 0 0 1-1.232-.51zm1.932 1.932c0-.194.075-.375.211-.511l1.132-1.132a.723.723 0 0 1 1.021 1.021l-1.132 1.132a.723.723 0 0 1-1.232-.51zm2.653 2.653a.723.723 0 0 1-.51-1.232l1.132-1.132a.723.723 0 0 1 1.021 1.021l-1.132 1.132a.72.72 0 0 1-.51.211zm3.114.644h-.12a.673.673 0 0 1-.443-.168l-.482-.425.484-.484c.175-.175.309-.378.407-.597l.583.486a.67.67 0 0 1-.429 1.188z"/>
        <path fill="#4D4D4D" d="M38.67 10.378V7.802H27.08V6.515H12.915v1.287H1.325v2.576H.039v8.37h1.288v-7.082h11.59v7.726h1.287V7.802h11.59v11.59h1.287v-7.726h11.59v7.082h1.288v-8.37H38.67zm-36.057 0V9.09h10.302v1.288H2.613zM27.08 9.09h10.302v1.288H27.08V9.09z"/>
        <path fill="#4D4D4D" d="M28.368 19.392h5.312v-1.288h-4.024v-3.863h6.438v3.148h1.288v-4.436h-9.014zM6.316 18.104v1.288h5.312v-6.439H2.613v3.864h1.288V14.24h6.439v3.863zM19.354 3.94h1.288v1.287h-1.288zM21.93 3.94h1.287v1.287H21.93zM16.778 3.94h1.288v1.287h-1.288z"/>
        <g fill="#DF542F">
            <path d="M25.149 21.967l6.438 9.658 8.37-2.575V14.885zM.038 14.241V29.05l7.726 2.575L10.315 21.5z"/>
        </g>
    </g>
</svg>
