<svg xmlns="http://www.w3.org/2000/svg" width="40" height="40" viewBox="0 0 40 40">
    <g fill="none" fill-rule="nonzero">
        <path fill="#DF542F" d="M12.258 25.316h15.484V36.93H12.258zM40 16.284h-6.016L20 6.114 6.016 16.284H0v-1.618L20 0l20 14.666z"/>
        <path fill="#4D4D4D" d="M27.742 24.026v-6.452H18.71v6.452h9.032zM20 18.865h6.452v3.87H20v-3.87zM12.258 27.897h15.484v1.29H12.258zM12.258 30.478h15.484v1.29H12.258zM21.29 33.058h6.452v1.29H21.29zM12.258 33.058H20v1.29h-7.742zM12.258 35.639h12.903v1.29H12.258zM26.452 35.639h1.29v1.29h-1.29zM12.258 25.316h1.29v1.29h-1.29zM14.839 25.316h12.903v1.29H14.839z"/>
        <path fill="#4D4D4D" d="M36.129 16.284h-1.29v16.774h-4.516V14.994H16.507l-6.83 6.83v11.234H5.161V16.284h-1.29v18.065h5.806v5.16h20.646v-5.16h5.806V16.284zm-20 .912v4.25H11.88l4.249-4.25zM29.032 38.22H10.968V22.736h6.451v-6.452h11.613V38.22zM20 13.703a2.583 2.583 0 0 0 2.58-2.58A2.583 2.583 0 0 0 20 8.543a2.583 2.583 0 0 0-2.58 2.58 2.583 2.583 0 0 0 2.58 2.58zm0-3.87c.712 0 1.29.578 1.29 1.29 0 .711-.578 1.29-1.29 1.29-.712 0-1.29-.579-1.29-1.29 0-.712.578-1.29 1.29-1.29z"/>
    </g>
</svg>
