<svg xmlns="http://www.w3.org/2000/svg" width="40" height="40" viewBox="0 0 40 40">
    <g fill="none" fill-rule="nonzero">
        <g fill="#DF542F">
            <path d="M10.323 20H8.065l-5.88 5.226a9.713 9.713 0 0 0 2.514 2.64l5.624-4.999V20zM9.032 34.194h20.645v3.225H9.032zM16.774 8.387H34.84V3.226H19.355v2.58h-2.58z"/>
        </g>
        <path fill="#4D4D4D" d="M40 20c0-1.557-1.11-2.86-2.58-3.16V0H6.451v10.438C2.674 11.972 0 15.678 0 20c0 4.323 2.674 8.028 6.452 9.562V40H31.88l5.54-5.54v-11.3A3.232 3.232 0 0 0 40 20zM7.742 1.29h28.387v15.484H20.111c-1.384-4.2-5.334-7.097-9.788-7.097-.893 0-1.755.126-2.581.34V1.29zm11.613 20.645v-1.29h14.193v1.29H19.355zm-8.387-10.94a9.053 9.053 0 0 1 7.779 5.78h-.155l-4.667 1.75c-.61.23-1.022.822-1.022 1.475 0 .653.411 1.246 1.023 1.476l4.667 1.75h.154a9.054 9.054 0 0 1-7.779 5.78V10.994zm3.412 9.273a.287.287 0 0 1 0-.536l3.685-1.382v3.3l-3.685-1.382zm19.168-.913H19.355v-1.29h14.193v1.29zM9.678 11v8.354H1.322A9.033 9.033 0 0 1 9.677 11zm-8.355 9.644h8.354V29a9.033 9.033 0 0 1-8.354-8.354zm6.419 9.338c.826.214 1.688.34 2.58.34 4.455 0 8.405-2.896 9.789-7.097h16.018v10.322h-5.161v5.162H7.742v-8.727zm27.475 4.856l-2.959 2.958V34.84h2.959zm1.557-12.904H34.84v-3.87h1.935c1.067 0 1.936.868 1.936 1.935a1.938 1.938 0 0 1-1.936 1.935z"/>
        <path fill="#4D4D4D" d="M7.097 15.484h1.29v1.29h-1.29zM4.516 15.484h1.29v1.29h-1.29zM19.355 2.58h15.484v1.291H19.355zM16.774 5.161H34.84v1.29H16.774zM16.774 7.742H34.84v1.29H16.774zM28.387 36.129h1.29v1.29h-1.29zM9.032 36.129h18.065v1.29H9.032zM9.032 33.548h20.645v1.29H9.032z"/>
    </g>
</svg>
