<svg xmlns="http://www.w3.org/2000/svg" width="40" height="40" viewBox="0 0 40 40">
    <g fill="none" fill-rule="nonzero">
        <g fill="#DF542F">
            <path d="M9.032 31.613h11.613v5.161H9.032zM2.58 17.42h12.904v8.386H2.58zM37.42 20.645H24.515v-3.87H37.42zM37.42 25.806H24.515v-3.87H37.42zM15.484 15.484H2.58V5.16h12.903z"/>
        </g>
        <path fill="#4D4D4D" d="M40 14.194h-1.29v-2.581h-2.581V7.742h-5.161V0H0v31.846L6.794 40h24.174v-5.161H40V14.194zm-2.58 0H24.515v-1.29H37.42v1.29zm-2.581-2.581h-7.742v-2.58h7.742v2.58zM6.452 37.573l-4.43-5.315h4.43v5.315zm23.225 1.137H7.742v-7.742H1.29V1.29h28.387v6.452h-3.87v3.87h-2.581v2.582h-1.29v20.645h7.741v3.87zm3.226-5.162h-3.87v-3.225c0-1.067.868-1.936 1.935-1.936 1.067 0 1.935.869 1.935 1.936v3.225zm5.807 0h-4.516v-3.225a3.23 3.23 0 0 0-3.226-3.226 3.23 3.23 0 0 0-3.226 3.226v3.225h-4.516V15.484H38.71v18.064z"/>
        <path fill="#4D4D4D" d="M14.746 2.913l-1.105-.665-5.5 9.165-2.046-1.023-.577 1.155 3.115 1.558zM28.387 16.774h1.29v3.871h-1.29zM32.258 16.774h1.29v3.871h-1.29zM32.258 21.935h1.29v3.871h-1.29zM28.387 21.935h1.29v3.871h-1.29z"/>
        <path fill="#FFF" d="M27.097 36.129h1.29v1.29h-1.29zM9.032 36.129h16.774v1.29H9.032zM9.032 33.548h11.613v1.29H9.032zM9.032 30.968h11.613v1.29H9.032z"/>
        <path fill="#4D4D4D" d="M2.58 16.774h12.904v1.29H2.58zM2.58 19.355h1.291v1.29h-1.29zM5.161 19.355h10.323v1.29H5.16zM2.58 21.935h12.904v1.29H2.58zM2.58 24.516h10.323v1.29H2.581zM14.194 24.516h1.29v1.29h-1.29z"/>
    </g>
</svg>
