<svg xmlns="http://www.w3.org/2000/svg" width="70" height="70" viewBox="0 0 70 70">
    <g fill="none" fill-rule="nonzero">
        <path fill="#DF542F" d="M68.563 17.898L45.16.071 21.76 17.899a3.623 3.623 0 0 0-1.286 1.862l2.165.641-.058 2.54h3.387l.693 1.142 18.5-14.39 18.946 14.737A3.654 3.654 0 0 0 70 21.549v-.745a3.682 3.682 0 0 0-1.437-2.906zM20.323 51.167H9.033v-11.29h11.29z"/>
        <path fill="#4D4D4D" d="M38.387 45.522h24.839V23.744l-2.258-1.757v21.277h-9.033V29.715H38.387v13.549H36.13V27.457a3.392 3.392 0 0 0-3.387-3.387h-5.645v-2.258h-3.501a5.655 5.655 0 0 0-5.531-4.516 5.654 5.654 0 0 0-5.532 4.516h-3.5v2.258H3.386A3.392 3.392 0 0 0 0 27.457v38.387a3.391 3.391 0 0 0 3.387 3.388h29.355a3.391 3.391 0 0 0 3.387-3.388v-5.67l15.806.025a4.52 4.52 0 0 0 4.517-4.516 4.52 4.52 0 0 0-4.517-4.516H36.13v-5.645h2.258zm2.258-13.549h9.032v11.29h-9.032v-11.29zM25.968 57.941v-4.516H45.16v4.516H25.968zm-2.258-.368l-5.38-1.538a.367.367 0 0 1 0-.704l5.38-1.538v3.78zm5.645-6.406h-4.516l-7.127 1.992a2.636 2.636 0 0 0-1.906 2.524c0 1.167.784 2.205 1.906 2.525l6.817 1.949 4.826.008v2.292H6.775V30.844h2.257v2.258h18.065v-2.258h2.258v20.323zM11.29 24.07h3.387v-1.129a3.392 3.392 0 0 1 3.388-3.387 3.392 3.392 0 0 1 3.387 3.387v1.13h3.387v6.773H11.29V24.07zm22.581 41.774a1.13 1.13 0 0 1-1.13 1.13H3.388a1.13 1.13 0 0 1-1.129-1.13V27.457a1.13 1.13 0 0 1 1.13-1.129h5.644v2.258H4.516v36.13h27.097v-4.548l2.258.003v5.673zm20.323-10.16a2.26 2.26 0 0 1-2.259 2.257H47.42v-4.516h4.516a2.26 2.26 0 0 1 2.259 2.258zm-22.581-4.517v-22.58h-4.516v-2.259h5.645a1.13 1.13 0 0 1 1.129 1.13v23.709h-2.258z"/>
        <path fill="#4D4D4D" d="M53.065 18.425H46.29V25.2h6.775v-6.774zm-2.259 4.516h-2.258v-2.258h2.258v2.258zM44.032 18.425h-6.774V25.2h6.774v-6.774zm-2.258 4.516h-2.258v-2.258h2.258v2.258zM13.548 26.328h2.258v2.258h-2.258zM20.323 26.328h2.258v2.258h-2.258zM14.677 45.054l-1.46-1.46-1.596 1.597 3.056 3.056 10.96-10.96-1.597-1.596z"/>
    </g>
</svg>
