<svg xmlns="http://www.w3.org/2000/svg" width="70" height="70" viewBox="0 0 70 70">
    <g fill="none" fill-rule="nonzero">
        <g fill="#DF542F">
            <path d="M24.839 31.613h-6.774V18.065h6.774zM29.355 49.677H4.516v-9.032h14.678v3.387h10.16zM56.452 18.065H42.903l-2.258 5.645H59.84z"/>
        </g>
        <path fill="#4D4D4D" d="M54.194 6.307v-1.79A4.52 4.52 0 0 0 49.677 0a4.52 4.52 0 0 0-4.516 4.516v1.67L29.355 17.25v-3.702h-4.516V9.032H9.032v4.516H4.516v20.323H0V70h33.871V45.161h4.516v-6.774h-4.516v-4.516h-4.516v-2.258h13.548v31.613h-1.129a5.652 5.652 0 0 0-5.645 5.645V70h27.097v-1.129a5.652 5.652 0 0 0-5.645-5.645h-1.13V31.613H70v-9.5L54.194 6.307zM11.29 11.29h11.29v2.258H11.29V11.29zm20.323 56.452H2.258V36.129h24.839v2.258h-9.032v6.774h13.548v22.58zm4.516-24.839H20.323v-2.258h15.806v2.258zm-4.516-6.774v2.258h-2.258V36.13h2.258zm-4.516-2.258H6.774V15.806h20.323v3.025l-4.516 3.161v9.62h4.516v2.259zm19.66 6.774l2.92-2.92 2.92 2.92h-5.84zm5.84 2.258l-2.92 2.92-2.92-2.92h5.84zm-7.436-3.854v-5.84l2.92 2.92-2.92 2.92zm0 5.45l2.92 2.92-2.92 2.92v-5.84zm1.597 7.436l2.92-2.92 2.919 2.92h-5.84zm5.839 2.259l-2.92 2.92-2.92-2.92h5.84zm-4.516 4.516l-2.92 2.92v-5.84l2.92 2.92zm1.596 1.596l2.92 2.92h-5.84l2.92-2.92zm1.597-1.596l2.92-2.92v5.84l-2.92-2.92zm2.92-8.371l-2.92-2.92 2.92-2.92v5.84zm-2.92-14.21l2.92-2.92v5.84l-2.92-2.92zm-1.597-1.596l-2.92-2.92h5.84l-2.92 2.92zm11.098 33.209H38.58a3.394 3.394 0 0 1 3.194-2.258h15.807c1.472 0 2.727.944 3.194 2.258zm6.967-38.387H24.839v-4.516h42.903v4.516zM25.679 22.58L45.16 8.943v9.122h2.258V4.516a2.26 2.26 0 0 1 2.258-2.258 2.26 2.26 0 0 1 2.258 2.258v13.549h2.259V9.5l13.08 13.08H25.68z"/>
        <path fill="#DF542F" d="M15.806 31.613H9.032V18.065h6.774zM29.355 63.226H4.516v-9.032h24.839z"/>
    </g>
</svg>
