<svg xmlns="http://www.w3.org/2000/svg" width="70" height="70" viewBox="0 0 70 70">
    <g fill="none" fill-rule="nonzero">
        <path fill="#DF542F" d="M1.129 47.42h5.645v20.322H1.13z"/>
        <path fill="#4D4D4D" d="M65.414 51.935h-.461a4.58 4.58 0 0 0-1.542.268l-12.627 4.51c.003-.075.022-.145.022-.22a4.504 4.504 0 0 0-2.868-4.178l-9.72-3.74A17.428 17.428 0 0 0 26.5 48.31l-7.49 2.496h-5.463V46.29H0v22.581h13.548v-4.516h5.507l20.509 5.128c1.377.343 2.793.517 4.208.517 2.55 0 5.12-.578 7.428-1.67l16.176-7.663A4.606 4.606 0 0 0 70 56.522a4.59 4.59 0 0 0-4.586-4.587zM11.29 66.613H9.032V57.58H6.774v9.032H2.258V48.548h4.516v2.258h2.258v-2.258h2.258v18.065zm55.12-7.987l-16.177 7.663a15.251 15.251 0 0 1-10.123 1.004L19.468 62.13l-5.92-.028v-9.037h5.829l7.836-2.613a15.156 15.156 0 0 1 10.193.233l9.72 3.739a2.226 2.226 0 0 1 1.422 2.068c0 .416-.121.8-.322 1.134l-.057.02.018.052a2.216 2.216 0 0 1-1.856 1.012h-.525c-.283 0-.56-.053-.823-.16L34.29 54.273l-.839 2.098 10.693 4.276c.532.212 1.09.32 1.66.32h.526a4.45 4.45 0 0 0 3.263-1.432l14.577-5.206c.253-.09.516-.135.782-.135h.46a2.33 2.33 0 0 1 2.329 2.328c0 .895-.523 1.721-1.333 2.104zM41.774 24.839a1.131 1.131 0 0 1-1.129-1.13h-2.258c0 1.47.947 2.712 2.258 3.18v2.466h2.258v-2.466a3.383 3.383 0 0 0 2.258-3.18 3.392 3.392 0 0 0-3.387-3.386 1.131 1.131 0 0 1-1.129-1.13c0-.621.507-1.128 1.13-1.128.621 0 1.128.507 1.128 1.129h2.258c0-1.47-.947-2.712-2.258-3.18v-2.466h-2.258v2.466a3.383 3.383 0 0 0-2.258 3.18 3.392 3.392 0 0 0 3.387 3.387c.622 0 1.13.507 1.13 1.129s-.508 1.129-1.13 1.129z"/>
        <path fill="#4D4D4D" d="M28.226 45.161h39.516v-15.43h-2.258v13.172h-2.258v-9.032h-6.774V13.548h-2.258v29.355h-6.775v-11.29H36.13v11.29h-6.774V13.548h-2.258v20.323h-6.774v9.032h-2.258V29.731h-2.259v15.43h12.42zm32.742-9.032v6.774h-4.516V36.13h4.516zm-22.58-2.258h6.773v9.032h-6.774v-9.032zM22.58 42.903V36.13h4.516v6.774H22.58zM6.774 53.065h2.258v2.258H6.774z"/>
        <g fill="#DF542F">
            <path d="M56.452 19.51v8.024L70 32.05v-8.027zM27.097 19.51l-13.549 4.514v8.027l13.549-4.517zM60.968 17.766L41.774 8.17l-19.193 9.597v-8.17L41.774 0l19.194 9.597z"/>
        </g>
    </g>
</svg>
