<svg xmlns="http://www.w3.org/2000/svg" width="37" height="37" viewBox="0 0 37 37">
    <path fill="none" fill-rule="evenodd" stroke="#DF542F" stroke-linecap="round" stroke-linejoin="round" stroke-width="2" d="M34.192 27.25l-6.067-3.967a2.8 2.8 0 0 0-3.792.759c-1.4 1.691-3.091 4.491-9.45-1.867-6.358-6.358-3.616-8.108-1.925-9.508a2.8 2.8 0 0 0 .759-3.792L9.75 2.808C9.225 2.05 8.525.825 6.892 1.058 5.258 1.292 1 3.683 1 8.933S5.142 20.6 10.8 26.258C16.458 31.917 22.875 36 28.067 36c5.191 0 7.7-4.667 7.875-5.833.175-1.167-.992-2.392-1.75-2.917z"/>
</svg>
