<svg xmlns="http://www.w3.org/2000/svg" width="80" height="80" viewBox="0 0 80 80">
    <g fill="none" fill-rule="evenodd">
        <circle cx="40" cy="40" r="40" fill="#35A6DE"/>
        <path fill="#FFF" d="M41.046 48.517c-1.23 1.211-2.445 2.402-3.65 3.603-.422.42-.896.652-1.5.619-.412-.023-.643-.208-.769-.605-.922-2.902-1.86-5.8-2.778-8.705-.09-.282-.224-.418-.505-.505a644.491 644.491 0 0 1-6.513-2.06 3.68 3.68 0 0 1-.924-.422c-.485-.326-.554-.844-.112-1.219a5.145 5.145 0 0 1 1.39-.836c2.749-1.1 5.511-2.166 8.268-3.244 6.633-2.594 13.265-5.187 19.897-7.782 1.271-.497 2.26.193 2.14 1.582-.078.915-.314 1.819-.502 2.723-1.47 7.036-2.945 14.07-4.419 21.106l-.007.04c-.36 1.61-1.514 2.05-2.83 1.07-2.284-1.704-4.563-3.415-6.845-5.122-.107-.08-.22-.157-.341-.243zm-5.048 2.215c.036-.165.06-.241.067-.319.145-1.582.297-3.164.425-4.747.029-.352.132-.611.4-.855 3.463-3.149 6.914-6.31 10.368-9.467.982-.898 1.969-1.792 2.942-2.7.102-.096.124-.279.183-.421-.15-.043-.318-.153-.447-.117a3.244 3.244 0 0 0-.855.37c-5.136 3.272-10.264 6.555-15.4 9.828-.261.166-.336.303-.231.622.813 2.475 1.603 4.958 2.4 7.438.032.097.076.19.148.368z"/>
    </g>
</svg>
