<svg xmlns="http://www.w3.org/2000/svg" width="80" height="80" viewBox="0 0 80 80">
    <g fill="none" fill-rule="evenodd">
        <circle cx="40" cy="40" r="40" fill="#67C15E"/>
        <path fill="#FFF" d="M35.081 31.34c-.34-.817-.6-.848-1.117-.87a9.975 9.975 0 0 0-.59-.02c-.672 0-1.375.197-1.8.631-.516.528-1.8 1.76-1.8 4.284 0 2.525 1.842 4.966 2.09 5.308.259.341 3.59 5.598 8.762 7.74 4.044 1.676 5.244 1.52 6.165 1.324 1.344-.29 3.03-1.283 3.455-2.483.424-1.2.424-2.225.3-2.442-.125-.217-.466-.341-.983-.6-.517-.259-3.03-1.5-3.507-1.666-.465-.176-.91-.114-1.261.383-.497.693-.983 1.397-1.376 1.821-.31.331-.817.373-1.242.197-.569-.238-2.161-.797-4.127-2.546-1.52-1.355-2.555-3.041-2.855-3.548-.3-.518-.03-.818.207-1.097.26-.32.507-.548.766-.849.258-.3.403-.455.569-.807.176-.341.051-.693-.073-.952-.124-.26-1.158-2.784-1.583-3.808zm4.914-8.94C30.292 22.4 22.4 30.294 22.4 40a17.47 17.47 0 0 0 3.351 10.316l-2.193 6.539 6.765-2.162a17.46 17.46 0 0 0 9.682 2.907C49.708 57.6 57.6 49.705 57.6 40c0-9.705-7.892-17.6-17.595-17.6h-.01z"/>
    </g>
</svg>
