<svg xmlns="http://www.w3.org/2000/svg" width="80" height="80" viewBox="0 0 80 80">
    <g fill="none" fill-rule="evenodd">
        <circle cx="40" cy="40" r="40" fill="#665CAC"/>
        <path fill="#FFF" d="M53.539 48.314c-.996-.825-2.06-1.565-3.106-2.321-2.088-1.51-3.998-1.627-5.557.802-.875 1.363-2.1 1.423-3.38.825-3.531-1.648-6.258-4.188-7.855-7.882-.706-1.634-.697-3.1.956-4.256.875-.611 1.757-1.335 1.686-2.67-.092-1.742-4.2-7.563-5.822-8.178-.672-.254-1.34-.237-2.023-.001-3.804 1.317-5.38 4.538-3.871 8.351 4.502 11.377 12.424 19.298 23.33 24.132.622.275 1.313.385 1.663.484 2.483.026 5.391-2.437 6.231-4.88.809-2.352-.9-3.285-2.252-4.406zM41.31 25.801c-.661-.105-1.668.043-1.618-.856.075-1.333 1.27-.837 1.848-.923 7.659.266 14.253 7.484 14.16 15.27-.01.763.257 1.895-.85 1.874-1.057-.021-.781-1.17-.875-1.934-1.015-8.266-4.692-12.169-12.665-13.431zm1.56 2.266c4.92.609 8.938 5.002 8.898 9.83-.075.571.249 1.55-.648 1.69-1.21.189-.975-.952-1.093-1.685-.811-5.028-2.526-6.873-7.45-8.006-.725-.167-1.854-.05-1.666-1.2.179-1.096 1.191-.724 1.958-.629zm.451 3.948c2.183-.056 4.741 2.637 4.705 4.967.022.636-.044 1.307-.776 1.397-.528.064-.875-.392-.93-.955-.201-2.074-1.264-3.3-3.284-3.633-.605-.1-1.2-.301-.917-1.143.188-.563.69-.62 1.202-.633z"/>
    </g>
</svg>
