<svg xmlns="http://www.w3.org/2000/svg" width="170" height="73" viewBox="0 0 170 73">
    <g fill="none" fill-rule="evenodd">
        <path fill="#DF542F" d="M120.178 44a3.781 3.781 0 0 1-2.704-1.137L84.5 9.373l-32.975 33.49a3.78 3.78 0 0 1-5.405 0 3.926 3.926 0 0 1 0-5.49L81.797 1.136a3.78 3.78 0 0 1 5.406 0l35.677 36.235a3.926 3.926 0 0 1 0 5.49A3.78 3.78 0 0 1 120.178 44"/>
        <path fill="#FFF" d="M10.424 60.422c0-1.525-.92-2.461-2.518-2.461H4.413v4.87h3.493c1.57 0 2.518-.883 2.518-2.409m4.576 0c0 4.015-2.545 6.396-6.634 6.396H4.413v5.085c0 .83-.298 1.097-1.11 1.097H1.11C.298 73 0 72.732 0 71.903V55.097C0 54.267.298 54 1.11 54h7.256C12.401 54 15 56.409 15 60.422M24.043 57.987h-.271s.027 1.9-.624 3.8l-1.412 4.175h4.396l-1.41-4.148c-.625-1.927-.679-3.827-.679-3.827M32.156 73h-2.035c-1.357 0-1.764-.214-2.008-.99l-.841-2.516H20.57l-.868 2.516c-.272.776-.625.99-1.981.99h-1.873c-.814 0-1.003-.348-.732-1.07L21.6 54.91c.271-.75.597-.91 1.357-.91h2.089c.76 0 1.112.16 1.357.857l6.485 17.073c.271.722.054 1.07-.733 1.07"/>
        <path fill="#FFF" d="M43.437 63.09C45.54 64.064 46 65.681 46 67.453 46 70.894 43.822 73 39.03 73c-4.306 0-6.92-1.54-7.92-4.314-.256-.719-.076-1.078.641-1.335l1.922-.693c.718-.257 1.025-.103 1.307.668.487 1.257 1.59 1.9 3.921 1.9 1.974 0 2.691-.745 2.691-2.003 0-1.31-.64-2.003-1.973-2.003h-3.024c-.769 0-1.025-.256-1.025-1.027v-1.592c0-.796.256-1.052 1.025-1.052h2.588c1.256 0 1.973-.591 1.973-1.875s-.794-1.9-2.46-1.9c-2.127 0-3.075.643-3.588 1.9-.282.77-.563.873-1.332.668l-1.896-.693c-.718-.257-.898-.616-.641-1.335.999-2.773 3.46-4.314 7.765-4.314 4.203 0 6.406 1.9 6.406 5.315 0 1.772-.64 2.978-1.973 3.774M58.424 60.422c0-1.525-.92-2.461-2.518-2.461h-3.493v4.87h3.493c1.57 0 2.518-.883 2.518-2.409m4.576 0c0 4.015-2.545 6.396-6.634 6.396h-3.953v5.085c0 .83-.298 1.097-1.11 1.097H49.11c-.812 0-1.11-.268-1.11-1.097V55.097c0-.83.298-1.097 1.11-1.097h7.256C60.401 54 63 56.409 63 60.422M77.737 55.097v1.793c0 .803-.263 1.07-1.08 1.07H69.29v3.453h6.052c.816 0 1.08.267 1.08 1.07v1.793c0 .83-.264 1.097-1.08 1.097H69.29v3.64h7.631c.79 0 1.079.294 1.079 1.097v1.793c0 .83-.29 1.097-1.079 1.097H66.08C65.29 73 65 72.733 65 71.903V55.097c0-.83.29-1.097 1.08-1.097h10.578c.816 0 1.079.268 1.079 1.097M101 55.097v16.806c0 .83-.257 1.097-1.055 1.097h-18.89C80.283 73 80 72.733 80 71.903V55.097c0-.83.283-1.097 1.055-1.097h2.085c.772 0 1.055.268 1.055 1.097v13.916h4.22V55.097c0-.83.258-1.097 1.056-1.097h2.084c.772 0 1.03.268 1.03 1.097v13.916h4.246V55.097c0-.83.257-1.097 1.03-1.097h2.084c.798 0 1.055.268 1.055 1.097M117.737 55.097v1.793c0 .803-.263 1.07-1.08 1.07h-7.368v3.453h6.053c.816 0 1.079.267 1.079 1.07v1.793c0 .83-.263 1.097-1.08 1.097h-6.052v3.64h7.632c.79 0 1.079.294 1.079 1.097v1.793c0 .83-.29 1.097-1.08 1.097h-10.84c-.79 0-1.08-.267-1.08-1.097V55.097c0-.83.29-1.097 1.08-1.097h10.578c.816 0 1.079.268 1.079 1.097M135 55.097v16.806c0 .83-.265 1.097-1.06 1.097h-2.147c-.821 0-1.086-.267-1.086-1.097v-6.53h-6.387v6.53c0 .83-.292 1.097-1.087 1.097h-2.147c-.794 0-1.086-.267-1.086-1.097V55.097c0-.83.292-1.097 1.086-1.097h2.147c.795 0 1.087.268 1.087 1.097v6.289h6.387v-6.289c0-.83.265-1.097 1.086-1.097h2.147c.795 0 1.06.268 1.06 1.097M153 55.097v16.806c0 .83-.284 1.097-1.059 1.097h-2.09c-.775 0-1.06-.267-1.06-1.097v-6.075c0-3.104.233-3.853.827-6.476h-.155c-.8 2.328-1.162 3.158-2.479 5.326l-4.724 7.814c-.206.374-.49.508-1.007.508h-2.195c-.774 0-1.058-.267-1.058-1.097V55.097c0-.83.284-1.097 1.058-1.097h2.092c.774 0 1.058.268 1.058 1.097v6.075c0 3.05-.18 3.88-.826 6.476h.155c.8-2.328 1.24-3.292 2.53-5.46l4.673-7.68c.206-.347.465-.508 1.007-.508h2.194c.775 0 1.059.268 1.059 1.097M159.793 60.155c0 1.392.77 2.168 2.206 2.168h3.695V57.96h-3.695c-1.435 0-2.206.802-2.206 2.194M161.547 54h7.363c.824 0 1.09.267 1.09 1.097v16.806c0 .83-.266 1.097-1.09 1.097h-2.126c-.824 0-1.09-.267-1.09-1.097v-5.647h-1.197c-1.594 0-2.1.295-2.658 1.58l-1.754 4.174c-.372.856-.85.99-2.206.99h-2.127c-.797 0-.903-.481-.585-1.15l2.526-5.273c.186-.347.372-.668.558-.99-1.888-.936-2.977-2.81-2.977-5.432 0-3.88 2.419-6.155 6.273-6.155"/>
    </g>
</svg>
