<svg xmlns="http://www.w3.org/2000/svg" width="50" height="50" viewBox="0 0 50 50">
    <g fill="none" fill-rule="nonzero">
        <g fill="#DF542F">
            <path d="M3.226 20.968h9.677v9.677H3.226zM3.226 34.677h9.677v9.678H3.226zM24.194 16.129H3.226V8.065h20.968z"/>
        </g>
        <path fill="#4D4D4D" d="M35.535 25.806c.479 0 .942.14 1.342.407l5.632 3.755a4.028 4.028 0 0 0 2.237.677H50v-1.613h-5.253c-.48 0-.944-.14-1.343-.406l-2.275-1.517V0H10.484v4.839H0V50h30.645v-4.839H41.13v-6.784c.05-.013.103-.017.154-.029l3.751-.937a10.497 10.497 0 0 1 2.547-.314H50v-1.613h-2.42c-.988 0-1.977.122-2.937.361l-3.751.938c-1.928.482-3.98.403-5.865-.225l-1.358-.453a12.092 12.092 0 0 0-3.83-.621h-7.037a2.423 2.423 0 0 1 2.419-2.42h8.87a2.422 2.422 0 0 0 2.42-2.419 2.415 2.415 0 0 0-2.136-2.39l.662-2.449h.498zm-1.019 12.282c1.237.413 2.526.622 3.83.622.391 0 .781-.034 1.17-.072v4.91h-8.87V40.91c.282-.326.502-.712.62-1.15l.66-2.445c.415.084.827.185 1.231.32l1.359.453zm-4.206-.973l-.601 2.224c-.157.58-.685.984-1.284.984h-.261a1.33 1.33 0 0 1-1.283-1.676l.418-1.55h2.54c.157 0 .314.012.47.018zm-4.682-.018l-.305 1.128a2.932 2.932 0 0 0 1.385 3.31l-.253 1.01 1.564.392.251-1.002h.155c.208 0 .41-.029.607-.07v6.522H1.612V6.452h10.485v-4.84h27.42v24.422l-1.745-1.163a4.026 4.026 0 0 0-2.237-.677h-.063l3.357-12.419a2.945 2.945 0 0 0-2.84-3.71h-.262a2.948 2.948 0 0 0-2.84 2.174l-2.242 8.296V4.839H13.71v1.613h15.322v17.742h-1.668c-.878 0-1.704.29-2.396.806h-8.033v1.613h6.34l-1.614 1.613h-4.726v1.613h3.114l-1.347 1.347a2.5 2.5 0 0 0-.738 1.78 2.52 2.52 0 0 0 2.517 2.518c.249 0 .488-.048.72-.117 0 .04-.012.077-.012.117 0 .89.724 1.613 1.613 1.613h2.826zm6.212-5.645h-3.015l3.406-12.6 2.766.921-3.157 11.679zm-6.187-4.938a2.438 2.438 0 0 1 1.71-.708h1.317l-.658 2.434a3.995 3.995 0 0 0-2.703 1.166l-4.199 4.2a.905.905 0 0 1-1.279-1.278l5.812-5.814zm.807 4.033a2.43 2.43 0 0 1 1.106-.621l-.412 1.526h-1.598l.904-.905zm10.812-19.193l-.988 3.654-2.766-.922.926-3.425c.157-.58.684-.984 1.283-.984h.262a1.33 1.33 0 0 1 1.283 1.677zm-4.175 4.292l2.766.922-.445 1.646-2.767-.922.446-1.646zm.995 14.193c.444 0 .806.362.806.806a.808.808 0 0 1-.806.807h-.581l.436-1.613h.145z"/>
        <path fill="#4D4D4D" d="M6.452 11.29h1.613v1.613H6.452zM9.677 11.29h1.613v1.613H9.677zM12.903 11.29h1.613v1.613h-1.613zM16.129 11.29h1.613v1.613h-1.613zM19.355 11.29h1.613v1.613h-1.613zM16.7 19.119l-1.141-1.14-7.494 7.494-1.043-1.043-1.14 1.14 2.183 2.183zM15.559 31.688l-7.494 7.494-1.043-1.043-1.14 1.14 2.183 2.184 8.634-8.635zM25.806 44.355h1.613v1.613h-1.613zM15.323 44.355h8.87v1.613h-8.87zM16.935 21.774H27.42v1.613H16.935z"/>
    </g>
</svg>
