<svg xmlns="http://www.w3.org/2000/svg" width="50" height="50" viewBox="0 0 50 50">
    <g fill="none" fill-rule="nonzero">
        <g fill="#DF542F">
            <path d="M6.462 20.937h18.51v4.83H6.463zM6.462 28.986h18.51v4.829H6.463zM24.168 17.718H9.681v-4.829h14.487zM41.874 43.473H27.387v-4.83h14.487zM41.874 37.034H27.387v-4.83h14.487z"/>
        </g>
        <path fill="#4D4D4D" d="M45.094 23.514l-1.61-.366V12.89h-1.61V6.45h-3.219l-6.439 1.808v4.631h-1.61v7.333l-1.609-.367V8.06h-3.22V3.4L11.476.033 8.071.012V8.06H5.05L0 25.89l4.668 22.412H3.243v1.61h43.46v-1.61h-1.61V23.514zm-1.61 1.285v23.503H25.778V20.937h.715L43.484 24.8zM33.826 9.472l4.942-1.412h1.497v4.83h-6.439V9.471zm-1.61 5.027h9.658v8.284l-9.658-2.195v-6.09zM9.681 1.62h1.517l12.97 3.052V8.06H9.681V1.621zm1.61 46.68v-8.853c0-.444.36-.804.805-.804h6.438c.445 0 .805.36.805.804v8.854h-8.048zm7.243-11.267h-6.438a2.417 2.417 0 0 0-2.415 2.414v8.854h-3.37L1.656 25.95l4.61-16.28h21.121v9.82l-.626-.142-2.593-.02v28.974h-3.22v-8.854a2.417 2.417 0 0 0-2.414-2.414zM48.313 48.302h1.61v1.61h-1.61zM.023 48.302h1.61v1.61H.023z"/>
        <path fill="#4D4D4D" d="M28.997 38.644h1.61v4.829h-1.61zM32.216 38.644h1.61v4.829h-1.61zM35.436 38.644h1.61v4.829h-1.61zM28.997 32.205h1.61v4.829h-1.61zM32.216 32.205h1.61v4.829h-1.61zM35.436 32.205h1.61v4.829h-1.61zM38.655 38.644h1.61v4.829h-1.61zM38.655 32.205h1.61v4.829h-1.61zM11.29 12.89h1.61v4.828h-1.61zM14.51 12.89h1.61v4.828h-1.61zM17.73 12.89h1.61v4.828h-1.61zM20.949 12.89h1.61v4.828h-1.61zM8.071 20.937h1.61v4.83h-1.61zM11.29 20.937h1.61v4.83h-1.61zM14.51 20.937h1.61v4.83h-1.61zM17.73 20.937h1.61v4.83h-1.61zM20.949 20.937h1.61v4.83h-1.61zM8.071 28.986h1.61v4.829h-1.61zM11.29 28.986h1.61v4.829h-1.61zM14.51 28.986h1.61v4.829h-1.61zM17.73 28.986h1.61v4.829h-1.61zM20.949 28.986h1.61v4.829h-1.61z"/>
    </g>
</svg>
