<svg xmlns="http://www.w3.org/2000/svg" width="50" height="50" viewBox="0 0 50 50">
    <g fill="none" fill-rule="nonzero">
        <g fill="#DF542F">
            <path d="M4.839 28.226h16.129v7.258H4.838zM12.903 21.774H8.065v-4.839h4.838zM33.871 21.774h-4.839v-4.839h4.839z"/>
        </g>
        <path fill="#4D4D4D" d="M24.194 5.645v1.613h6.924l5.645 5.645h-6.924v1.613h5.645v9.678h-8.065V13.71h-1.613v10.484h-1.612v-8.065h-6.452v8.065h-1.613V13.71h-1.613v10.484H6.452v-9.678h5.645v-1.613H5.173l5.645-5.645h6.924V5.645H10.15L3.226 12.57v1.947h1.613v11.29h32.258v-11.29h1.613V12.57l-6.924-6.924h-7.592zm-4.84 12.097h3.227v6.452h-3.226v-6.452z"/>
        <path fill="#4D4D4D" d="M41.935 38.71V0H0v45.161A4.843 4.843 0 0 0 4.839 50h39.516A5.652 5.652 0 0 0 50 44.355V38.71h-8.065zM8.065 45.16a3.229 3.229 0 0 1-3.226 3.226 3.229 3.229 0 0 1-3.226-3.226V1.613h38.71V38.71H8.065v6.451zm40.322-.806a4.037 4.037 0 0 1-4.032 4.032H8.442a4.819 4.819 0 0 0 1.235-3.226v-4.838h38.71v4.032z"/>
        <path fill="#4D4D4D" d="M4.839 27.42h16.129v1.612H4.838zM4.839 30.645h16.129v1.613H4.838zM19.355 33.871h1.613v1.613h-1.613zM16.129 33.871h1.613v1.613h-1.613zM4.839 33.871h9.677v1.613H4.84zM29.839 33.537l-1.613 1.613-1.613-1.613-2.183 2.183 1.14 1.14 1.043-1.042 1.613 1.613 1.613-1.613 1.279 1.279h4.366v-1.613h-3.698z"/>
        <path fill="#000" d="M37.097 35.484h1.613v1.613h-1.613z"/>
        <path fill="#DF542F" d="M28.128 15.323a2.534 2.534 0 0 1-1.78-.738l-5.38-5.38-5.38 5.38a2.534 2.534 0 0 1-1.78.738 2.52 2.52 0 0 1-2.518-2.517c0-.663.269-1.312.737-1.78l7.063-7.063a2.534 2.534 0 0 1 1.78-.737h.195c.663 0 1.312.268 1.78.737l7.063 7.063a2.52 2.52 0 0 1-1.78 4.297z"/>
    </g>
</svg>
