<svg xmlns="http://www.w3.org/2000/svg" width="50" height="50" viewBox="0 0 50 50">
    <g fill="none" fill-rule="nonzero">
        <path fill="#DF542F" d="M24.194 10.484a7.258 7.258 0 1 1-14.516 0 7.258 7.258 0 0 1 14.516 0zM6.452 50h-4.84C.724 50 0 49.277 0 48.387V38.71c0-.89.723-1.613 1.613-1.613h4.839c.89 0 1.613.723 1.613 1.613v9.677c0 .89-.724 1.613-1.613 1.613z"/>
        <path fill="#4D4D4D" d="M38.847 36.29c-.824 0-1.599.321-2.183.904l-.743.745-.163-.65a2.38 2.38 0 0 0-2.311-1.805c-1.058 0-2 .71-2.29 1.728l-1.12 3.917H25.1l-2.107-.526a.544.544 0 0 1-.253-.912l2.969-2.97a3.062 3.062 0 0 0 .905-2.182 3.09 3.09 0 0 0-3.088-3.087c-.824 0-1.6.32-2.183.904l-6.687 6.688c-.306.304-.71.472-1.141.472h-5.45v1.613h5.45c.861 0 1.67-.335 2.281-.945l6.687-6.688a1.476 1.476 0 0 1 2.085 2.085L21.6 38.55c-.407.407-.631.95-.631 1.525 0 .991.672 1.851 1.633 2.092l2.203.55 7.592.025c.646 0 1.254-.252 1.711-.709l3.698-3.698a1.476 1.476 0 0 1 2.085 2.085l-4.086 4.086a3.217 3.217 0 0 1-1.704.893l-7.06 1.284c-.33.06-.67.091-1.009.091H8.065v1.613H26.03a7.2 7.2 0 0 0 1.299-.118l7.059-1.283a4.82 4.82 0 0 0 2.555-1.34l4.086-4.085a3.06 3.06 0 0 0 .905-2.183 3.09 3.09 0 0 0-3.088-3.088zm-5.88 4.603a.803.803 0 0 1-.571.236h-.682l.993-3.475a.77.77 0 0 1 1.487.026l.397 1.59-1.624 1.623zM26.613 13.71h7.258V6.452h1.968a2.4 2.4 0 0 1 .664.093l4.775 1.363c.36.104.734.157 1.11.157h3.58V6.452h-3.58a2.4 2.4 0 0 1-.666-.094l-4.774-1.363a4.002 4.002 0 0 0-1.11-.156h-1.967V0H0v20.968h33.871v-2.519l.774.31a8.385 8.385 0 0 0 6.869-.307 6.743 6.743 0 0 1 3.005-.71h1.449v-1.613h-1.45a8.431 8.431 0 0 0-3.774.903 6.787 6.787 0 0 1-5.5.23l-1.342-.538a8.301 8.301 0 0 0-3.093-.595h-6.615a2.423 2.423 0 0 1 2.419-2.42zm-2.42 4.032h6.616c.49 0 .975.052 1.45.157v1.456H1.612V1.613h30.645v10.484h-5.645a4.037 4.037 0 0 0-4.032 4.032c0 .89.723 1.613 1.613 1.613z"/>
        <path fill="#DF542F" d="M48.387 19.355h-1.613c-.89 0-1.613-.724-1.613-1.613V6.452c0-.89.724-1.613 1.613-1.613h1.613c.89 0 1.613.723 1.613 1.613v11.29c0 .89-.723 1.613-1.613 1.613z"/>
        <path fill="#4D4D4D" d="M30.645 6.452h-1.613V4.839H27.42V3.226h3.226zM4.839 6.452H3.226V3.226h3.226v1.613H4.839zM6.452 17.742H3.226v-3.226h1.613v1.613h1.613z"/>
        <path fill="#DF542F" d="M31.452 26.613v-5.645H25v5.645h-3.226l6.452 6.452 6.451-6.452z"/>
        <path fill="#4D4D4D" d="M40.323 27.42h1.612v5.645h-1.612zM40.323 24.194h1.612v1.612h-1.612zM40.323 20.968h1.612v1.613h-1.612zM37.097 27.42h1.613v6.451h-1.613zM3.226 37.097h1.613v7.258H3.226zM3.226 45.968h1.613V50H3.226zM37.097 24.194h1.613v1.612h-1.613zM17.742 9.677h-1.613a.808.808 0 0 1 0-1.612h1.613c.444 0 .806.361.806.806h1.613a2.423 2.423 0 0 0-2.42-2.42V4.84H16.13v1.613a2.423 2.423 0 0 0-2.42 2.419 2.423 2.423 0 0 0 2.42 2.42h1.613a.808.808 0 0 1 0 1.612h-1.613a.808.808 0 0 1-.806-.806H13.71a2.423 2.423 0 0 0 2.419 2.42v1.612h1.613v-1.613a2.423 2.423 0 0 0 2.42-2.42 2.423 2.423 0 0 0-2.42-2.419z"/>
    </g>
</svg>
