<svg xmlns="http://www.w3.org/2000/svg" width="50" height="50" viewBox="0 0 50 50">
    <g fill="none" fill-rule="nonzero">
        <path fill="#DF542F" d="M17.64 11.687c.569-.794.908-1.764.908-2.816a4.838 4.838 0 1 0-9.677 0c0 1.052.34 2.022.909 2.816L7.258 21.774l2.42-1.613 1.612 3.226 1.718-9.734c.23.033.463.057.702.057.238 0 .471-.024.701-.057l1.718 9.734 1.613-3.226 2.42 1.613-2.522-10.087z"/>
        <g fill="#4D4D4D">
            <path d="M13.71 14.516a5.652 5.652 0 0 0 5.645-5.645 5.652 5.652 0 0 0-5.645-5.645A5.652 5.652 0 0 0 8.065 8.87a5.652 5.652 0 0 0 5.645 5.645zm0-9.677a4.037 4.037 0 0 1 4.032 4.032 4.037 4.037 0 0 1-4.032 4.032 4.037 4.037 0 0 1-4.033-4.032 4.037 4.037 0 0 1 4.033-4.032z"/>
            <path d="M47.58 12.903c-.621 0-1.183.243-1.612.63a2.4 2.4 0 0 0-1.613-.63h-8.871v-2.768L25.334 0H0v50h35.484V22.58h1.613V50h4.838V22.58h2.42c.622 0 1.184-.242 1.613-.628a2.4 2.4 0 0 0 1.613.629A2.422 2.422 0 0 0 50 20.16v-4.838a2.422 2.422 0 0 0-2.42-2.42zM25.807 2.752l6.937 6.925h-6.937V2.752zM1.613 48.387V1.613h22.58v9.677h9.678v1.762a2.41 2.41 0 0 0-.806.48 2.4 2.4 0 0 0-1.613-.629 2.422 2.422 0 0 0-2.42 2.42v4.838a2.422 2.422 0 0 0 2.42 2.42c.621 0 1.183-.243 1.613-.63.233.21.504.374.806.481v25.955H1.613zm30.645-28.226a.807.807 0 0 1-1.613 0v-4.838a.807.807 0 0 1 1.613 0v4.838zm8.065 28.226H38.71V22.581h1.613v25.806zm4.032-27.42h-9.678a.807.807 0 0 1-.806-.806v-4.838c0-.446.361-.807.806-.807h9.678c.445 0 .806.361.806.807v4.838a.807.807 0 0 1-.806.807zm4.032-.806a.807.807 0 0 1-1.613 0v-4.838a.807.807 0 0 1 1.613 0v4.838z"/>
            <path d="M4.032 28.226h27.419v1.613H4.032zM4.032 32.258h27.419v1.613H4.032zM4.032 36.29h27.419v1.613H4.032zM4.032 40.323h27.419v1.613H4.032zM4.032 44.355h27.419v1.613H4.032z"/>
        </g>
    </g>
</svg>
