<svg xmlns="http://www.w3.org/2000/svg" width="50" height="50" viewBox="0 0 50 50">
    <g fill="none" fill-rule="nonzero">
        <circle cx="25" cy="25" r="12.903" fill="#DF542F"/>
        <path fill="#4D4D4D" d="M25 7.258C15.217 7.258 7.258 15.217 7.258 25c0 9.783 7.959 17.742 17.742 17.742 9.783 0 17.742-7.959 17.742-17.742 0-9.783-7.959-17.742-17.742-17.742zm0 33.871c-8.894 0-16.129-7.235-16.129-16.129 0-8.894 7.235-16.129 16.129-16.129 8.894 0 16.129 7.235 16.129 16.129 0 8.894-7.235 16.129-16.129 16.129z"/>
        <path fill="#4D4D4D" d="M24.194 24.194H13.71v1.612h12.096V13.71h-1.612z"/>
        <circle cx="25" cy="11.29" r="1" fill="#FFF"/>
        <circle cx="25" cy="38.71" r="1" fill="#FFF"/>
        <circle cx="38.71" cy="25" r="1" fill="#FFF"/>
        <circle cx="11.29" cy="25" r="1" fill="#FFF"/>
        <path fill="#4D4D4D" d="M5.702 34.378L4.77 36.71A23.242 23.242 0 0 1 1.613 25C1.613 12.105 12.105 1.613 25 1.613a23.442 23.442 0 0 1 14.698 5.2l1.014-1.254A25.061 25.061 0 0 0 25 0C11.215 0 0 11.215 0 25c0 4.459 1.187 8.782 3.43 12.606l-2.465-.493-.317 1.58 4.69.938L7.2 34.977l-1.499-.599z"/>
        <circle cx="7.258" cy="41.129" r="1" fill="#4D4D4D"/>
        <path fill="#4D4D4D" d="M46.57 12.394l2.465.493.317-1.581-4.69-.938-1.862 4.655 1.498.598.932-2.331A23.247 23.247 0 0 1 48.387 25c0 12.895-10.492 23.387-23.387 23.387a23.442 23.442 0 0 1-14.698-5.2l-1.014 1.254A25.061 25.061 0 0 0 25 50c13.785 0 25-11.215 25-25 0-4.459-1.187-8.782-3.43-12.606z"/>
        <circle cx="42.742" cy="8.871" r="1" fill="#4D4D4D"/>
    </g>
</svg>
