<svg xmlns="http://www.w3.org/2000/svg" width="45" height="50" viewBox="0 0 45 50">
    <g fill="none" fill-rule="nonzero">
        <path fill="#4D4D4D" d="M44.643 15.323c0-1.312-.656-2.469-1.654-3.205V8.537L34.238 0H1.653v12.118C.656 12.854 0 14.01 0 15.323s.656 2.468 1.653 3.205V50H42.99V18.528c.998-.737 1.654-1.893 1.654-3.205zm-9.92-12.57l5.444 5.312h-5.445V2.753zM3.306 1.613h29.762v8.064h8.267v1.695a4.238 4.238 0 0 0-.827-.082h-1.653c-1.996 0-3.666 1.388-4.05 3.226h-1.82c-.385-1.838-2.054-3.226-4.05-3.226h-1.654c-1.996 0-3.666 1.388-4.05 3.226h-1.82c-.385-1.838-2.054-3.226-4.05-3.226h-1.654c-1.996 0-3.666 1.388-4.05 3.226h-1.82c-.385-1.838-2.054-3.226-4.051-3.226H4.134c-.283 0-.56.029-.827.082v-9.76zm27.956 14.516a2.473 2.473 0 0 1-2.328 1.613h-1.653a2.473 2.473 0 0 1-2.328-1.613h1.501v-1.613h-1.501a2.473 2.473 0 0 1 2.328-1.613h1.653c1.076 0 1.986.677 2.328 1.613h-1.501v1.613h1.501zm-11.574 0a2.473 2.473 0 0 1-2.328 1.613h-1.653a2.473 2.473 0 0 1-2.328-1.613h1.501v-1.613H13.38a2.473 2.473 0 0 1 2.328-1.613h1.653c1.076 0 1.986.677 2.328 1.613h-1.501v1.613h1.501zM4.134 12.903h1.653c1.076 0 1.986.677 2.328 1.613H6.614v1.613h1.501a2.473 2.473 0 0 1-2.328 1.613H4.134c-1.368 0-2.48-1.086-2.48-2.42 0-1.333 1.112-2.419 2.48-2.419zm37.202 35.484H3.306V19.273c.268.053.545.082.828.082h1.653c1.996 0 3.666-1.388 4.05-3.226h1.82c.385 1.838 2.054 3.226 4.05 3.226h1.654c1.996 0 3.666-1.388 4.05-3.226h1.82c.385 1.838 2.054 3.226 4.05 3.226h1.654c1.996 0 3.666-1.388 4.05-3.226h1.82c.385 1.838 2.054 3.226 4.05 3.226h1.654c.283 0 .56-.029.827-.082v29.114zm-.827-30.645h-1.653a2.473 2.473 0 0 1-2.328-1.613h1.501v-1.613h-1.501a2.473 2.473 0 0 1 2.328-1.613h1.653c1.367 0 2.48 1.086 2.48 2.42 0 1.333-1.113 2.419-2.48 2.419z"/>
        <path fill="#4D4D4D" d="M22.321 20.968c-4.102 0-7.44 3.256-7.44 7.258v3.226h1.653v-3.226c0-3.113 2.596-5.645 5.787-5.645s5.787 2.532 5.787 5.645v3.226h1.654v-3.226c0-4.002-3.338-7.258-7.44-7.258zM4.96 3.226h26.455v1.613H4.96zM4.96 6.452h23.148v1.613H4.96zM29.762 6.452h1.653v1.613h-1.653z"/>
        <path fill="#DF542F" d="M28.935 46.774H15.708c-1.368 0-2.48-1.085-2.48-2.42v-11.29c0-1.333 1.112-2.419 2.48-2.419h13.227c1.367 0 2.48 1.086 2.48 2.42v11.29c0 1.334-1.113 2.42-2.48 2.42z"/>
        <path fill="#4D4D4D" d="M24.802 36.29c0-1.333-1.113-2.419-2.48-2.419-1.368 0-2.48 1.086-2.48 2.42 0 1.05.693 1.936 1.653 2.27v4.987h1.653v-4.987c.96-.334 1.654-1.22 1.654-2.27zm-2.48.807a.818.818 0 0 1-.827-.807c0-.444.371-.806.826-.806.456 0 .827.362.827.806a.818.818 0 0 1-.827.807z"/>
    </g>
</svg>
