<svg xmlns="http://www.w3.org/2000/svg" width="50" height="50" viewBox="0 0 50 50">
    <g fill="none" fill-rule="nonzero">
        <g fill="#4D4D4D">
            <path d="M25.047.049c-8.432 0-15.292 6.86-15.292 15.291 0 8.433 6.86 15.292 15.292 15.292 8.432 0 15.292-6.86 15.292-15.292C40.339 6.908 33.479.05 25.047.05zm13.641 14.487H33.56a23.218 23.218 0 0 0-.078-1.323l-1.604.152c.036.38.058.773.073 1.17h-6.1V9.83c1.72-.09 3.394-.448 4.959-1.084.219.564.42 1.155.586 1.798l1.56-.4a17.635 17.635 0 0 0-.686-2.093 15.327 15.327 0 0 0 2.82-1.97 13.612 13.612 0 0 1 3.598 8.456zm-18.273 6.992c-.382.121-.757.264-1.129.416-.62-1.6-1.04-3.528-1.125-5.8h6.081v4.708c-.24.013-.48.012-.717.035l.159 1.602c.186-.019.372-.014.557-.024v5.941c-1.147-.802-2.932-2.377-4.281-4.983.312-.126.622-.26.942-.362l-.487-1.533zm-1.24-16.183c-.25.398-.476.808-.69 1.227a13.685 13.685 0 0 1-2.323-1.615 13.637 13.637 0 0 1 5.821-2.94c-.294.263-.596.544-.905.87l1.167 1.109a12.888 12.888 0 0 1 1.997-1.721v5.944a13.587 13.587 0 0 1-4.307-.95c.187-.366.387-.723.604-1.069l-1.365-.855zm6.677-3.066c1.154.81 2.956 2.38 4.306 4.99a13.608 13.608 0 0 1-4.306.95V2.28zm2.276-.258c2.18.505 4.16 1.526 5.804 2.936a13.718 13.718 0 0 1-2.318 1.613 15.466 15.466 0 0 0-3.486-4.549zM24.242 9.83v4.707H18.15c.077-2.103.456-4.039 1.132-5.793a15.2 15.2 0 0 0 4.96 1.086zm-2.3 18.825a13.634 13.634 0 0 1-5.774-2.923 13.854 13.854 0 0 1 2.307-1.601 15.453 15.453 0 0 0 3.467 4.524zm3.91-.234v-5.952c1.486.089 2.935.416 4.302.967-1.353 2.631-3.146 4.193-4.302 4.985zm5.767-4.29c.818.45 1.59.982 2.31 1.598a13.638 13.638 0 0 1-5.777 2.925 15.438 15.438 0 0 0 3.467-4.523zm-5.767-3.278v-4.707h6.082c-.085 2.275-.498 4.201-1.11 5.798a15.23 15.23 0 0 0-4.972-1.091zM15.004 6.08c.875.765 1.816 1.43 2.82 1.97-.774 1.966-1.204 4.135-1.284 6.486h-5.134a13.608 13.608 0 0 1 3.598-8.456zm-3.598 10.065h5.128c.086 2.558.573 4.708 1.273 6.498a15.473 15.473 0 0 0-2.813 1.947 13.608 13.608 0 0 1-3.588-8.445zm23.684 8.456a15.32 15.32 0 0 0-2.803-1.96c.7-1.79 1.187-3.938 1.273-6.496h5.127a13.603 13.603 0 0 1-3.597 8.456zM49.98 37.229l.017-4.987-1.618-8.163-.546-3.822a2.458 2.458 0 0 0-3.025-2.035 2.447 2.447 0 0 0-1.839 2.676 2.496 2.496 0 0 0-1.992.714 2.51 2.51 0 0 0-.58 2.626c-.38.113-.74.303-1.03.593a2.51 2.51 0 0 0-.58 2.626c-.38.113-.74.304-1.03.593a2.493 2.493 0 0 0-.735 1.777c0 .67.26 1.302.736 1.776l2.51 2.51-.734 1.104v5.073h-.805v9.658h11.268V40.29h-.628l.612-3.061zM42.116 22.75a.89.89 0 0 1 1.097-.12l.346 2.425v.414l-.638-.638-.805-.805a.895.895 0 0 1-.264-.638c0-.242.093-.468.264-.638zm-1.61 3.219a.924.924 0 0 1 1.277 0l1.528 1.528a2.392 2.392 0 0 0-.557 1.525v.471l-1.443-1.443-.805-.805a.895.895 0 0 1-.264-.638c0-.241.094-.468.264-.638zm-1.61 4.496a.895.895 0 0 1-.263-.639.903.903 0 0 1 1.54-.638l2.012 2.012.016.016-1.02 1.532-2.284-2.283zm2.249 5.239l3.219-4.829v-1.853a.805.805 0 0 1 1.61 0v5.633h1.61v-5.633a2.417 2.417 0 0 0-2.415-2.415v-1.61l-.602-4.274a.845.845 0 1 1 1.673-.24l.554 3.867 1.594 7.97v4.671l-.66 3.298h-6.583v-4.585zm7.243 12.633H40.34V41.9h8.048v6.438zM11.213 27.443a2.51 2.51 0 0 0-.584-2.612 2.486 2.486 0 0 0-1.026-.608 2.51 2.51 0 0 0-.583-2.611 2.499 2.499 0 0 0-1.992-.713 2.446 2.446 0 0 0-1.838-2.676 2.457 2.457 0 0 0-3.025 2.035l-.54 3.778-1.609 8.048L0 37.071l.632 3.22H0v9.657h11.268V40.29h-.805v-5.073l-.735-1.102 2.511-2.511a2.493 2.493 0 0 0 .736-1.777c0-.67-.261-1.302-.736-1.777a2.5 2.5 0 0 0-1.026-.607zm-1.722-.197l-.804.805-1.444 1.442v-.47c0-.582-.214-1.107-.556-1.525l1.528-1.528a.903.903 0 1 1 1.276 1.276zm-1.61-4.495c.171.17.265.396.265.638a.895.895 0 0 1-.264.638l-.805.805-.638.638v-.414l.346-2.425a.892.892 0 0 1 1.097.12zm1.777 25.587H1.61V41.9h8.048v6.438zM2.27 40.29l-.66-3.299v-4.67l1.601-8.014.547-3.822a.833.833 0 0 1 .364-.583.845.845 0 0 1 1.309.822l-.594 4.16-.006 1.724H4.83a2.417 2.417 0 0 0-2.415 2.415v5.633h1.61v-5.633a.805.805 0 0 1 1.61 0v1.853l3.22 4.829v4.585H2.27zm8.831-9.824L8.817 32.75l-1.021-1.533.016-.016 2.012-2.012a.903.903 0 0 1 1.277 1.277z"/>
        </g>
        <g fill="#DF542F">
            <path d="M20.677 6.796a2.256 2.256 0 0 1-2.254-2.253 2.256 2.256 0 0 1 2.254-2.254 2.257 2.257 0 0 1 2.254 2.254 2.257 2.257 0 0 1-2.254 2.253zM32.518 14.044a2.256 2.256 0 0 1-2.253-2.254 2.256 2.256 0 0 1 2.253-2.253 2.256 2.256 0 0 1 2.254 2.253 2.256 2.256 0 0 1-2.254 2.254zM22.108 24.195a2.256 2.256 0 0 1-2.254-2.253 2.257 2.257 0 0 1 2.254-2.255 2.257 2.257 0 0 1 2.254 2.255 2.257 2.257 0 0 1-2.254 2.253z"/>
        </g>
    </g>
</svg>
