<svg xmlns="http://www.w3.org/2000/svg" width="50" height="50" viewBox="0 0 50 50">
    <g fill="none" fill-rule="nonzero">
        <path fill="#DF542F" d="M12.903.806h12.903v8.871H12.903zM22.58 20.161h17.743v13.71H22.58z"/>
        <path fill="#4D4D4D" d="M45.968 37.097h-2.42V16.129H38.71V2.419A2.423 2.423 0 0 0 36.29 0H2.42A2.423 2.423 0 0 0 0 2.42v29.032a2.423 2.423 0 0 0 2.42 2.419h16.935v3.226h-7.448L7.62 39.24a2.1 2.1 0 0 0-1.168 1.889 2.1 2.1 0 0 0 1.166 1.889l4.289 2.143h7.448V50h24.193v-4.839h2.42A4.037 4.037 0 0 0 50 41.13a4.037 4.037 0 0 0-4.032-4.032zm-5.645 3.226h-27.42V38.71h27.42v1.613zm-27.42 1.612h27.42v1.613h-27.42v-1.613zm29.032-3.225h1.613v4.838h-1.613V38.71zM2.42 32.258a.808.808 0 0 1-.806-.806V2.419c0-.444.361-.806.806-.806H36.29c.445 0 .807.362.807.806v13.71H19.355v16.13H2.419zm18.549-14.516h20.967v19.355H20.968V17.742zM8.065 41.129c0-.19.105-.36.275-.446l2.95-1.475v3.842l-2.95-1.475a.497.497 0 0 1-.275-.446zm33.87 7.258H20.968v-3.226h20.967v3.226zm4.033-4.839h-.807V38.71h.807a2.423 2.423 0 0 1 2.42 2.419 2.423 2.423 0 0 1-2.42 2.42z"/>
        <path fill="#4D4D4D" d="M22.58 19.355h17.743v1.613H22.58zM22.58 22.58h1.614v1.614H22.58zM25.806 22.58h14.517v1.614H25.806zM22.58 25.806h17.743v1.613H22.58zM22.58 29.032h17.743v1.613H22.58zM38.71 32.258h1.613v1.613H38.71zM22.58 32.258h14.517v1.613H22.58zM3.226 29.032h6.451v1.613H3.226zM11.29 29.032h1.613v1.613H11.29zM3.226 25.806h9.677v1.613H3.226z"/>
    </g>
</svg>
