<svg xmlns="http://www.w3.org/2000/svg" width="30" height="30" viewBox="0 0 30 30">
    <g fill="#FFF" fill-rule="nonzero" opacity=".5">
        <path d="M8.915.008c-2.328 0-4.223 1.941-4.223 4.328V6.26h.47c0-.797.63-1.443 1.407-1.443.918 0 1.816-.278 2.58-.8l.236-.162.275.282c.424.435 1 .68 1.602.68.777 0 1.407.646 1.407 1.443h.47V4.336c0-2.387-1.895-4.328-4.224-4.328z"/>
        <path d="M28.461 22.408l-1.446-3.162h.67v-.962h-4.76a1.926 1.926 0 0 0-.402-.778v-2.307l-1.408-1.443-1.407 1.443v2.307a1.926 1.926 0 0 0-.403.778h-2.413V16.36a.951.951 0 0 0 .939-.962v-.962c0-.53-.421-.962-.939-.962h-2.346v-.59c0-.997-.612-1.902-1.522-2.252l-2.232-.858v-.407a2.89 2.89 0 0 0 .786-1.216 1.91 1.91 0 0 0 1.56-1.891c0-1.061-.841-1.924-1.876-1.924-.473 0-.936-.197-1.27-.539l-.548-.56-.556.38c-.69.47-1.491.72-2.319.72-1.035 0-1.877.862-1.877 1.923 0 .95.676 1.736 1.56 1.891.158.472.431.889.786 1.216v.407l-2.23.858c-.911.35-1.523 1.255-1.523 2.252v.59H.938a.951.951 0 0 0-.938.962v.962c0 .53.42.962.938.962v10.581h15.954v-2.404h-.938v1.442H4.692v-6.733H12.2v-.962H3.754v7.695H1.877V16.36h14.077v1.924h-1.408v.962h.67l-1.446 3.162.85.409 1.334-2.919 1.335 2.919.85-.409-1.447-3.162h2.613c.074.293.214.557.403.778v6.917c-.776 0-1.408.648-1.408 1.443v1.443h5.63v-1.443c0-.795-.63-1.443-1.407-1.443v-6.917c.189-.221.329-.485.403-.778h2.613l-1.446 3.162.85.409 1.334-2.919 1.335 2.919.85-.409zM12.2 6.26c0 .354-.19.661-.47.828V5.432c.28.167.47.473.47.828zM9.324 4.473l.004.004c.397.407.914.677 1.464.776v1.969c0 1.061-.841 1.924-1.877 1.924-1.035 0-1.877-.863-1.877-1.924V5.264a5.005 5.005 0 0 0 2.286-.79zM5.631 6.26c0-.355.19-.661.469-.828v1.656a.961.961 0 0 1-.47-.828zm3.284 3.848c.33 0 .645-.062.939-.169v.169c0 .53-.421.962-.939.962a.951.951 0 0 1-.938-.962v-.169c.294.107.609.169.938.169zm-4.692 2.776c0-.599.367-1.141.914-1.351l2.019-.777c.261.742.948 1.276 1.76 1.276.811 0 1.498-.534 1.759-1.276l2.02.777c.546.21.913.752.913 1.35v.591H4.223v-.59zM.938 14.436h15.954l.001.962H.938v-.962zm20.177 5.291a.951.951 0 0 1-.938-.962c0-.53.42-.962.938-.962s.939.432.939.962-.421.962-.939.962zm0-4.61l.47.48v1.313a1.805 1.805 0 0 0-.47-.069c-.163 0-.318.028-.469.069v-1.313l.47-.48zm1.877 13.267v.481h-3.754v-.48c0-.266.21-.482.47-.482h2.815c.259 0 .47.216.47.481zm-2.346-1.443v-6.32c.151.04.306.068.47.068.162 0 .318-.028.469-.068v6.32h-.939z"/>
        <path d="M5.63 20.208h6.57v.962H5.63zM5.63 22.132h6.57v.962H5.63zM5.63 24.056h6.57v.962H5.63zM28.52 25.018h-4.486l-.704-2.886h5.894zM18.197 25.018h-4.486l-.704-2.886H18.9z"/>
    </g>
</svg>
