<svg xmlns="http://www.w3.org/2000/svg" width="30" height="30" viewBox="0 0 30 30">
    <g fill="#FFF" fill-rule="nonzero" opacity=".5">
        <path d="M6.29 6.774h3.871v3.871h-3.87z"/>
        <path d="M27.58 17.903h-3.386V5.123L19.07 0H0v30h24.194v-7.258h3.387A2.422 2.422 0 0 0 30 20.322a2.422 2.422 0 0 0-2.42-2.419zM19.356 1.652l3.187 3.187h-3.187V1.652zm3.87 27.38H.969V.968h17.42v4.838h4.838v12.097h-.968v-.968h-.968v.968h-1.36c-1.019-3.086-3.926-5.322-7.35-5.322-4.268 0-7.741 3.473-7.741 7.742 0 4.268 3.473 7.742 7.742 7.742 3.423 0 6.33-2.236 7.35-5.323h1.36v.968h.967v-.968h.968v6.29zm-3.044-10.161h1.11v2.903h-1.11c.09-.47.142-.955.142-1.451 0-.497-.052-.981-.142-1.452zm-.826 1.452a6.781 6.781 0 0 1-6.774 6.774 6.781 6.781 0 0 1-6.775-6.774 6.781 6.781 0 0 1 6.775-6.775 6.781 6.781 0 0 1 6.774 6.775zm8.226 1.451h-5.323v-2.903h5.323c.8 0 1.451.651 1.451 1.452 0 .8-.651 1.451-1.451 1.451z"/>
        <path d="M12.097 19.839h.968v.967h-.968zM14.032 19.839H15v.967h-.968zM10.161 19.839h.968v.967h-.968zM3.387 10.645v.968h9.678v-.968h-.968V4.74l2.216 1.023.406-.879-6.493-2.997-6.493 2.997.405.879 2.217-1.023v5.906h-.968zm1.936-6.353l2.903-1.34 2.903 1.34v6.353H5.323V4.292zM15.968 6.774h6.29v.968h-6.29zM15.968 8.71h6.29v.967h-6.29zM15.968 10.645h4.355v.968h-4.355zM21.29 10.645h.968v.968h-.968z"/>
    </g>
</svg>
