<svg xmlns="http://www.w3.org/2000/svg" width="30" height="30" viewBox="0 0 30 30">
    <g fill="#FFF" fill-rule="nonzero" opacity=".5">
        <path d="M14.998 0l-4.346 2.173v3.196h8.692V2.173zM14.998 13.578a.967.967 0 0 1-.965-.966h-.966a1.93 1.93 0 0 0 1.448 1.863v1.035h.966v-1.035a1.93 1.93 0 0 0 1.449-1.863 1.933 1.933 0 0 0-1.932-1.931.967.967 0 0 1 0-1.932c.533 0 .966.433.966.966h.966a1.93 1.93 0 0 0-1.449-1.863V6.818h-.966v1.034a1.93 1.93 0 0 0-1.448 1.863c0 1.065.866 1.932 1.931 1.932a.967.967 0 0 1 0 1.931zM22.959 21.857l-2.117 1.27c-.02-.021-.036-.046-.058-.065l-4.08-3.673a1.984 1.984 0 0 0-2.301-.222l-1.798 1.079a.652.652 0 0 1-.987-.559v-.096c0-.248.138-.472.36-.583l2.694-1.346a2.108 2.108 0 0 1 1.506-.14l3.034.866 1.098.02v-.967h-.898l-2.97-.848a3.025 3.025 0 0 0-.716-.103l-2.185-.699a5.96 5.96 0 0 0-3.095-.14l-3.54.786.209.943 3.541-.787a4.992 4.992 0 0 1 2.59.118l.712.228-2.411 1.205c-.552.276-.895.83-.895 1.447v.096a1.619 1.619 0 0 0 2.45 1.387l1.798-1.08a.999.999 0 0 1 1.158.112l4.08 3.673a.52.52 0 0 1-.348.906h-.083a.519.519 0 0 1-.332-.12l-.077-.064-2.542-2.119-.618.742 2.542 2.118a.506.506 0 0 1-.322.892h-.105a.504.504 0 0 1-.323-.117l-.08-.068-2.543-2.118-.618.742 2.543 2.118a.504.504 0 0 1-.323.891.794.794 0 0 1-.508-.184l-1.077-.898a1.502 1.502 0 0 0-1.297-.844 1.503 1.503 0 0 0-1.449-1.449 1.503 1.503 0 0 0-1.448-1.449 1.506 1.506 0 0 0-2.568-1.012l-.849.849c-.05.051-.093.108-.135.165l-1.506-.903-.497.828 1.701 1.02a1.504 1.504 0 0 0 1.45 1.457c.028.788.66 1.42 1.449 1.449.028.788.66 1.42 1.448 1.449a1.506 1.506 0 0 0 2.35 1.193l.426.376c.269.237.614.368.972.368h.09a1.47 1.47 0 0 0 1.467-1.451 1.469 1.469 0 0 0 1.449-1.449 1.469 1.469 0 0 0 1.448-1.45 1.486 1.486 0 0 0 1.451-1.482c0-.055-.011-.108-.017-.163l2.197-1.318-.497-.827zM8.238 23.66c0-.145.056-.281.158-.383l.85-.85a.542.542 0 0 1 .766.766l-.85.85a.542.542 0 0 1-.924-.383zm1.448 1.448c0-.145.057-.28.159-.383l.849-.849a.542.542 0 0 1 .766.766l-.85.85a.542.542 0 0 1-.924-.383zm1.45 1.449c0-.145.056-.28.158-.383l.848-.85a.542.542 0 0 1 .766.766l-.849.85a.542.542 0 0 1-.924-.383zm1.99 1.99a.542.542 0 0 1-.384-.924l.85-.85a.542.542 0 0 1 .766.766l-.85.85a.54.54 0 0 1-.383.158zm2.334.483h-.089a.505.505 0 0 1-.333-.126l-.361-.319.362-.363c.132-.131.232-.284.306-.448l.438.365a.503.503 0 0 1-.323.89z"/>
        <path d="M29.002 7.783V5.852H20.31v-.966H9.686v.966H.994v1.931H.03v6.278h.965V8.75h8.692v5.795h.966V5.852h8.692v8.692h.966V8.749h8.692v5.312h.966V7.783h-.966zm-27.042 0v-.965h7.726v.965H1.96zm18.35-.965h7.727v.965H20.31v-.965z"/>
        <path d="M21.276 14.544h3.984v-.966h-3.018v-2.897h4.829v2.36h.966V9.716h-6.761zM4.737 13.578v.966H8.72V9.715H1.96v2.897h.965v-1.931h4.829v2.897zM14.515 2.954h.966v.966h-.966zM16.447 2.954h.966v.966h-.966zM12.584 2.954h.966v.966h-.966z"/>
        <path d="M18.862 16.476l4.829 7.243 6.277-1.932V11.164zM.029 10.68v11.107l5.794 1.932 1.913-7.594z"/>
    </g>
</svg>
