<svg xmlns="http://www.w3.org/2000/svg" width="30" height="30" viewBox="0 0 30 30">
    <g fill="#FFF" fill-rule="nonzero" opacity=".5">
        <path d="M30 12.213h-4.512L15 4.585 4.512 12.213H0V11L15 0l15 11zM20.806 18.02v-4.84h-6.774v4.84h6.774zM15 14.148h4.839v2.903H15v-2.903zM9.194 20.923h11.612v.967H9.194zM9.194 22.858h11.612v.968H9.194zM15.968 24.794h4.838v.967h-4.838zM9.194 24.794H15v.967H9.194zM9.194 26.73h9.677v.967H9.194zM19.839 26.73h.967v.967h-.967zM9.194 18.987h.967v.968h-.967zM11.129 18.987h9.677v.968H11.13z"/>
        <path d="M27.097 12.213h-.968v12.58h-3.387V11.246H12.38l-5.122 5.123v8.426H3.871V12.213h-.968v13.548h4.355v3.871h15.484v-3.87h4.355V12.212zm-15 .684v3.187H8.91l3.187-3.187zm9.677 15.768H8.226V17.052h4.839v-4.839h8.71v16.452zM15 10.278a1.938 1.938 0 0 0 1.935-1.936A1.937 1.937 0 0 0 15 6.407a1.937 1.937 0 0 0-1.935 1.935c0 1.067.868 1.936 1.935 1.936zm0-2.904a.969.969 0 0 1 0 1.936.969.969 0 0 1 0-1.936z"/>
    </g>
</svg>
