<svg xmlns="http://www.w3.org/2000/svg" width="30" height="22" viewBox="0 0 30 22">
    <g fill="#FFF" fill-rule="nonzero" opacity=".5">
        <path d="M5.806 12.58h3.871v5.323h-3.87zM23.226 8.71h-2.903V5.806h2.903zM27.097 8.71h-2.903V5.806h2.903zM23.226 12.58h-2.903V9.678h2.903zM27.097 12.58h-2.903V9.678h2.903zM23.226 16.452h-2.903v-2.904h2.903zM27.097 16.452h-2.903v-2.904h2.903z"/>
        <path d="M30 4.839V3.87h-.968V1.935h-.967V0h-8.71v1.935h-.968v1.936h-.968v.968h.968v12.58h-3.87v-5.806h.967V8.71h-.968v-.738l-6.774-4.69-2.903 2.01V3.798H1.935v3.505l-.967.67v.738H0v2.903h.968v5.895A1.45 1.45 0 0 0 0 18.871v.968c0 .8.651 1.451 1.452 1.451h27.096c.8 0 1.452-.651 1.452-1.451v-.968a1.45 1.45 0 0 0-.968-1.363V4.838m-8.71-3.87h6.775v.967h-6.774V.968zm-.967 1.935h8.71v.968h-8.71v-.968zM2.903 4.764h.968v1.198l-.968.67V4.764zM1.935 8.48l5.807-4.02 5.806 4.02v.23H1.935v-.23zM.968 9.677h13.548v.968H.968v-.968zm12.58 1.936v5.806H1.935v-5.806h11.613zm15.484 8.226a.485.485 0 0 1-.484.484H18.051a5.288 5.288 0 0 0-6.102 0H1.452a.485.485 0 0 1-.484-.484v-.968c0-.267.217-.484.484-.484h27.096c.267 0 .484.217.484.484v.968zm-.967-2.42h-8.71V4.84h8.71v12.58z"/>
    </g>
</svg>
