<svg xmlns="http://www.w3.org/2000/svg" width="30" height="30" viewBox="0 0 30 30">
    <g fill="none" fill-rule="nonzero">
        <g fill="#DF542F">
            <path d="M28.065 15.484h-9.678V12.58h9.678zM28.065 19.355h-9.678v-2.903h9.678zM11.613 11.613H1.935V3.87h9.678z"/>
        </g>
        <path fill="#FFF" d="M30 10.645h-.968V8.71h-1.935V5.806h-3.871V0H0v23.885L5.096 30h18.13v-3.871H30V10.645zm-1.935 0h-9.678v-.968h9.678v.968zM26.129 8.71h-5.806V6.774h5.806V8.71zM4.839 28.18l-3.322-3.986h3.322v3.986zm17.42.852H5.805v-5.806H.968V.968h21.29v4.838h-2.903V8.71h-1.936v1.935h-.967V26.13h5.806v2.903zm2.418-3.87h-2.903v-2.42c0-.8.652-1.452 1.452-1.452.8 0 1.451.652 1.451 1.452v2.42zm4.355 0h-3.387v-2.42a2.422 2.422 0 0 0-2.42-2.42 2.422 2.422 0 0 0-2.419 2.42v2.42H17.42v-13.55h11.613v13.55z"/>
        <path fill="#4D4D4D" d="M11.06 2.185l-.83-.499L6.107 8.56l-1.535-.767-.432.866 2.336 1.168zM21.29 12.58h.968v2.904h-.968zM24.194 12.58h.967v2.904h-.967zM24.194 16.452h.967v2.903h-.967zM21.29 16.452h.968v2.903h-.968z"/>
        <path fill="#FFF" d="M20.323 27.097h.967v.968h-.967zM6.774 27.097h12.58v.968H6.775zM6.774 25.161h8.71v.968h-8.71zM6.774 23.226h8.71v.968h-8.71zM1.935 12.58h9.678v.968H1.935zM1.935 14.516h.968v.968h-.968zM3.871 14.516h7.742v.968H3.87zM1.935 16.452h9.678v.967H1.935zM1.935 18.387h7.742v.968H1.935zM10.645 18.387h.968v.968h-.968z"/>
    </g>
</svg>
