<svg xmlns="http://www.w3.org/2000/svg" width="183" height="78" viewBox="0 0 183 78">
    <g fill="none" fill-rule="evenodd">
        <path fill="#DF542F" d="M129.887 48a4.04 4.04 0 0 1-2.909-1.24L91.5 10.224 56.02 46.76a4.029 4.029 0 0 1-5.815 0c-1.607-1.654-1.607-4.335 0-5.99L88.592 1.24a4.029 4.029 0 0 1 5.816 0l38.387 39.53c1.607 1.655 1.607 4.336 0 5.99a4.04 4.04 0 0 1-2.908 1.24"/>
        <path fill="#4D4E4C" d="M11.12 64.76c0-1.605-.983-2.59-2.687-2.59H4.708v5.126h3.725c1.675 0 2.686-.93 2.686-2.535m4.881 0c0 4.225-2.715 6.732-7.076 6.732H4.708v5.352c0 .873-.318 1.155-1.185 1.155H1.184C.317 78 0 77.718 0 76.845v-17.69C0 58.282.317 58 1.184 58h7.74C13.228 58 16 60.535 16 64.76M25.545 62.197h-.286s.029 2-.659 4l-1.49 4.395h4.64l-1.489-4.367c-.658-2.028-.716-4.028-.716-4.028M34.11 78h-2.148c-1.432 0-1.862-.226-2.12-1.042l-.887-2.648h-7.075l-.916 2.648c-.287.816-.66 1.042-2.091 1.042h-1.976c-.86 0-1.06-.366-.774-1.127l6.846-17.915c.286-.789.63-.958 1.432-.958h2.205c.802 0 1.174.17 1.432.902l6.845 17.971c.287.76.058 1.127-.773 1.127"/>
        <path fill="#4D4E4C" d="M47.096 67.568C49.477 68.595 50 70.297 50 72.162 50 75.784 47.531 78 42.1 78c-4.88 0-7.842-1.622-8.975-4.54-.29-.757-.087-1.136.726-1.406l2.179-.73c.813-.27 1.162-.108 1.481.703.552 1.324 1.8 2 4.444 2 2.236 0 3.05-.784 3.05-2.108 0-1.379-.727-2.108-2.237-2.108H39.34c-.872 0-1.162-.27-1.162-1.081v-1.676c0-.838.29-1.108 1.162-1.108h2.933c1.423 0 2.237-.622 2.237-1.973 0-1.352-.9-2-2.789-2-2.41 0-3.485.676-4.066 2-.32.81-.639.919-1.51.703l-2.15-.73c-.813-.27-1.016-.649-.726-1.405C34.403 59.62 37.192 58 42.07 58c4.764 0 7.262 2 7.262 5.595 0 1.865-.726 3.135-2.236 3.973M63.12 64.76c0-1.605-.983-2.59-2.687-2.59h-3.725v5.126h3.725c1.675 0 2.686-.93 2.686-2.535m4.881 0c0 4.225-2.715 6.732-7.076 6.732h-4.216v5.352c0 .873-.318 1.155-1.185 1.155h-2.339C52.317 78 52 77.718 52 76.845v-17.69c0-.873.317-1.155 1.184-1.155h7.74C65.228 58 68 60.535 68 64.76M83.717 59.155v1.887c0 .845-.284 1.127-1.162 1.127H74.62v3.634h6.518c.878 0 1.162.282 1.162 1.127v1.887c0 .873-.284 1.155-1.162 1.155H74.62v3.831h8.218c.85 0 1.162.31 1.162 1.155v1.887c0 .873-.312 1.155-1.162 1.155H71.162c-.85 0-1.162-.282-1.162-1.155v-17.69c0-.873.312-1.155 1.162-1.155h11.393c.878 0 1.162.282 1.162 1.155M109 59.155v17.69c0 .873-.27 1.155-1.106 1.155H88.105C87.296 78 87 77.718 87 76.845v-17.69c0-.873.296-1.155 1.105-1.155h2.184c.809 0 1.106.282 1.106 1.155v14.648h4.421V59.155c0-.873.27-1.155 1.106-1.155h2.183c.81 0 1.079.282 1.079 1.155v14.648h4.448V59.155c0-.873.27-1.155 1.079-1.155h2.183c.836 0 1.106.282 1.106 1.155M127.716 59.155v1.887c0 .845-.283 1.127-1.162 1.127h-7.935v3.634h6.518c.879 0 1.162.282 1.162 1.127v1.887c0 .873-.283 1.155-1.162 1.155h-6.518v3.831h8.219c.85 0 1.162.31 1.162 1.155v1.887c0 .873-.312 1.155-1.162 1.155h-11.676c-.85 0-1.162-.282-1.162-1.155v-17.69c0-.873.312-1.155 1.162-1.155h11.392c.88 0 1.162.282 1.162 1.155M145 59.155v17.69c0 .873-.283 1.155-1.13 1.155h-2.29c-.877 0-1.16-.282-1.16-1.155v-6.873h-6.812v6.873c0 .873-.311 1.155-1.16 1.155h-2.29c-.847 0-1.158-.282-1.158-1.155v-17.69c0-.873.311-1.155 1.159-1.155h2.29c.848 0 1.16.282 1.16 1.155v6.62h6.811v-6.62c0-.873.283-1.155 1.16-1.155h2.29c.847 0 1.13.282 1.13 1.155M167 59.155v17.69c0 .873-.322 1.155-1.2 1.155h-2.37c-.877 0-1.2-.282-1.2-1.155v-6.394c0-3.268.264-4.056.937-6.817h-.176c-.907 2.45-1.316 3.324-2.809 5.606l-5.354 8.225c-.234.394-.556.535-1.141.535H151.2c-.878 0-1.2-.282-1.2-1.155v-17.69c0-.873.322-1.155 1.2-1.155h2.37c.877 0 1.2.282 1.2 1.155v6.394c0 3.212-.205 4.085-.937 6.817h.176c.906-2.45 1.404-3.464 2.867-5.746l5.296-8.085c.234-.366.527-.535 1.14-.535h2.488c.878 0 1.2.282 1.2 1.155"/>
        <path fill="#4D4E4C" d="M172.112 64.479c0 1.465.823 2.282 2.354 2.282h3.94v-4.592h-3.94c-1.531 0-2.354.845-2.354 2.31M173.983 58h7.855c.878 0 1.162.282 1.162 1.155v17.69c0 .873-.284 1.155-1.162 1.155h-2.269c-.879 0-1.162-.282-1.162-1.155v-5.944h-1.276c-1.701 0-2.24.31-2.836 1.662l-1.871 4.395c-.397.901-.907 1.042-2.353 1.042h-2.269c-.85 0-.964-.507-.624-1.211l2.694-5.55c.199-.366.397-.704.595-1.042-2.013-.986-3.175-2.957-3.175-5.718 0-4.085 2.58-6.479 6.691-6.479"/>
    </g>
</svg>
